<svg width="288" height="179" viewBox="0 0 288 179" fill="none" xmlns="http://www.w3.org/2000/svg">
<g clip-path="url(#clip0_1_187)">
<path d="M143.471 44.1748L143.463 44.2358L143.443 44.4121L141.325 62.8415L128.356 68.6114L128.153 68.4936L120.892 64.3123L117.138 46.8447L116.881 45.6456L116.959 45.6091L133.021 38.2917L143.461 44.1678L143.471 44.1748Z" fill="#6C63FF"/>
<path d="M128.153 68.4936L120.892 64.3123L116.881 45.6456L116.959 45.6091L127.424 50.9626L128.153 68.4936Z" fill="#6C63FF"/>
<path opacity="0.2" d="M128.335 68.2805L122.812 55.4467L123.522 51.8084L120.181 47.0382L119.897 47.3312L123.115 51.9269L120.711 64.2601L121.074 64.3646L122.681 56.1201L128.004 68.4898L128.335 68.2805Z" fill="black"/>
<path d="M143.471 44.4009L143.443 44.4121L127.424 51.189L117.138 46.8447L116.881 45.6456L116.959 45.6091L133.021 38.2917L143.461 44.1678L143.463 44.2358L143.471 44.4009Z" fill="#3F3D56"/>
<path d="M127.703 51.5283L124.438 48.4739L125.184 45.0798L134.514 41.0068L140.858 41.4594L143.378 44.0616L143.564 44.7402L127.703 51.5283Z" fill="#6C63FF"/>
<path d="M117.067 45.6455L124.438 45.3059L128.431 43.6627L134.656 41.0068L135.82 38.9707L132.915 38.3401L117.067 45.6455Z" fill="#6C63FF"/>
<path d="M131.752 42.0045L127.909 43.6399L128.032 44.0668L131.876 42.4314L131.752 42.0045Z" fill="#CCCCCC"/>
<path d="M81.1316 15.5433L79.3298 26.4665L87.7376 34.113L91.6414 19.9125L81.1316 15.5433Z" fill="#9F616A"/>
<path d="M87.8878 25.5563C92.3655 25.5563 95.9954 21.1548 95.9954 15.7253C95.9954 10.2958 92.3655 5.89429 87.8878 5.89429C83.4102 5.89429 79.7803 10.2958 79.7803 15.7253C79.7803 21.1548 83.4102 25.5563 87.8878 25.5563Z" fill="#9F616A"/>
<path d="M70.3216 90.2134C70.3586 93.3852 81.7509 128.685 80.1692 133.282C77.6758 136.372 72.3125 152.822 70.0211 157.21C69.721 157.21 68.2196 162.672 68.2196 162.672C68.2196 162.672 71.823 169.59 75.7266 166.677C80.635 152.678 92.9277 144.871 93.1449 126.626C93.7382 132.389 95.4897 169.385 95.4897 169.385C95.4897 169.385 95.1537 169.558 102.716 170.436C103.89 148.965 108.688 112.435 97.9468 89.4849C94.6441 87.6646 70.3216 90.2134 70.3216 90.2134Z" fill="#2F2E41"/>
<path d="M95.4892 168.665C95.1382 169.483 92.6206 177.04 94.9116 177.797C97.5536 178.671 100.115 177.447 100.115 177.447C100.115 177.447 104.74 179.199 107.57 176.972C108.891 175.37 108.591 173.914 107.961 172.858C107.64 172.338 107.23 171.909 106.759 171.601C106.288 171.293 105.767 171.113 105.232 171.075C103.796 170.951 103.34 170.628 103.175 169.83C102.935 168.665 95.4892 168.665 95.4892 168.665Z" fill="#2F2E41"/>
<path d="M70.7819 162.066C70.7819 162.066 64.328 164.538 65.6867 167.421C66.5691 169.208 67.8576 170.648 69.3978 171.57C69.3978 171.57 70.7438 178.299 74.4802 178.299C76.3485 178.299 76.9854 177.012 77.1552 175.725C77.232 175.082 77.1922 174.427 77.0386 173.805C76.885 173.184 76.6213 172.61 76.2659 172.124C75.3226 170.805 75.1883 170.186 75.5373 169.48C76.0468 168.45 70.7819 162.066 70.7819 162.066Z" fill="#2F2E41"/>
<path d="M99.4499 91.2793C99.4499 91.2793 98.2474 94.1921 93.4431 93.0985C88.6388 92.0084 69.7223 93.0985 69.7223 93.0985C69.7223 93.0985 70.7717 67.0656 68.3695 51.4081C65.9674 35.7505 75.4256 26.8299 75.4256 26.8299L78.429 23.188C81.4324 22.827 87.7745 34.1276 87.7745 34.1276C89.8616 34.5518 91.8099 45.3091 93.472 55.4881C93.5703 56.0699 93.6628 56.6448 93.7553 57.2196C94.5213 61.9656 95.588 67.2479 96.2268 71.9904C96.2731 72.3269 96.3164 72.6599 96.3569 72.9929C97.1163 79.1513 98.1488 85.2556 99.4499 91.2793Z" fill="#E6E6E6"/>
<path d="M78.4031 9.60389C78.4031 9.60389 76.8873 5.56015 80.8284 3.72208C80.8284 3.72208 84.1633 -2.89496 90.8329 1.51641C90.8329 1.51641 95.3804 3.72208 95.3804 9.60389C95.3804 15.4857 96.8962 16.5885 96.8962 16.5885C96.8962 16.5885 94.6389 13.7804 94.0326 11.5748C93.4262 9.36909 88.7107 8.86868 86.8918 11.0744C85.0728 13.28 80.5253 12.9124 80.5253 12.9124L80.8284 20.9999C80.8284 20.9999 79.3126 16.2209 78.7063 16.2209C78.1 16.2209 77.4936 9.60389 78.4031 9.60389Z" fill="#2F2E41"/>
<path opacity="0.2" d="M96.2268 71.9905C89.0637 67.269 77.4606 56.9148 73.7172 51.3135C68.7828 43.9352 74.1653 38.3269 74.1653 38.3269C80.2674 33.658 87.5635 49.6766 87.5635 49.6766L93.472 55.4882C93.5703 56.07 93.6628 56.6449 93.7553 57.2197C94.5213 61.9657 95.588 67.248 96.2268 71.9905Z" fill="black"/>
<path d="M117.61 66.5495C117.61 66.5495 128.259 71.7917 130.012 65.8988C131.765 60.0059 121.604 60.107 121.604 60.107L117.615 60.7924L117.61 66.5495Z" fill="#9F616A"/>
<path d="M72.8003 35.9289C72.8003 35.9289 67.4205 41.5405 72.3514 48.9164C77.2822 56.2923 99.943 72.052 99.943 72.052L114.704 67.2133L118.881 68.1402L119.669 58.6305L113.515 59.359L97.8932 55.3257L87.9319 45.5248C87.9319 45.5248 78.9009 31.2626 72.8003 35.9289Z" fill="#E6E6E6"/>
<path opacity="0.2" d="M92.3988 103.529L93.34 130.197L90.9535 103.529H92.3988Z" fill="black"/>
<path d="M194.016 84.4529L185.472 86.8535C184.811 87.0392 184.116 86.9051 183.535 86.4797C182.955 86.0542 182.533 85.371 182.362 84.5751C182.262 84.1136 182.25 83.6307 182.326 83.1626C182.402 82.6945 182.565 82.2534 182.801 81.8723C183.038 81.4913 183.343 81.1802 183.693 80.9623C184.043 80.7445 184.429 80.6255 184.823 80.6145L193.076 80.3817L194.016 84.4529Z" fill="#FFB9B9"/>
<path d="M193.109 85.9734L191.211 79.0703L202.587 74.3585L199.568 42.116C205.004 43.3145 207.591 48.4981 207.349 55.1916L208.821 77.193L193.109 85.9734Z" fill="#3F3D56"/>
<path d="M200.969 35.0074H219.555V23.7994C219.562 20.7725 218.584 17.8645 216.833 15.7065C215.978 14.6434 214.956 13.7989 213.827 13.223C212.699 12.6472 211.486 12.3515 210.261 12.3536C207.816 12.3591 205.47 13.5315 203.732 15.6173C201.994 17.7032 201.002 20.5348 200.972 23.5001C200.97 23.6027 200.969 23.7002 200.969 23.7994L200.969 35.0074Z" fill="#2F2E41"/>
<path d="M227.327 166.716L221.385 165.889L214.275 107.664L199.568 166.126L193.14 166.362L200.445 94.4362L199.373 78.0197L217.587 71.0515C230.487 81.9712 230.22 120.54 227.327 166.716Z" fill="#2F2E41"/>
<path d="M208.626 32.7857C212.499 32.7857 215.639 28.9786 215.639 24.2822C215.639 19.5858 212.499 15.7787 208.626 15.7787C204.753 15.7787 201.613 19.5858 201.613 24.2822C201.613 28.9786 204.753 32.7857 208.626 32.7857Z" fill="#FFB9B9"/>
<path d="M215.639 39.6357L203.756 43.4151C205.758 38.7465 206.399 34.3884 205.315 30.4236L213.691 28.7701C213.153 32.5613 213.851 36.4578 215.639 39.6357Z" fill="#FFB9B9"/>
<path d="M219.632 74.2404C212.968 79.3799 205.204 85.2841 199.471 79.555L196.743 63.4929C194.576 61.1518 195.537 53.9279 198.467 43.6311C198.653 42.9775 198.96 42.3839 199.363 41.8952C199.767 41.4065 200.257 41.0356 200.796 40.8107L205.315 38.9271C207.317 40.9693 210.6 39.7513 214.47 37.0375L218.95 38.4547L220.898 56.1704C218.086 61.2791 218.578 68.0814 219.632 74.2404Z" fill="#3F3D56"/>
<path d="M214.08 81.146L205.536 83.5466C204.875 83.7323 204.18 83.5982 203.6 83.1728C203.019 82.7473 202.598 82.0641 202.426 81.2683C202.326 80.8067 202.314 80.3238 202.39 79.8557C202.466 79.3876 202.629 78.9465 202.866 78.5655C203.102 78.1844 203.407 77.8733 203.757 77.6554C204.107 77.4376 204.493 77.3187 204.887 77.3076L213.14 77.0748L214.08 81.146Z" fill="#FFB9B9"/>
<path d="M226.294 177.848C225.296 178.4 224.46 174.978 223.619 175.981C221.264 178.786 215.616 178.157 215.616 178.157C215.427 178.083 215.251 177.963 215.101 177.805C214.951 177.647 214.829 177.453 214.742 177.235C214.655 177.018 214.606 176.781 214.597 176.54C214.587 176.299 214.619 176.058 214.689 175.832C214.772 175.561 214.909 175.319 215.087 175.127C215.265 174.934 215.479 174.797 215.71 174.727L218.214 173.968L222.145 165.584L226.43 164.927L226.538 165.141C227.366 166.76 227.9 168.574 228.104 170.463C228.309 172.352 228.178 174.272 227.722 176.095C227.365 177.479 226.88 177.523 226.294 177.848Z" fill="#2F2E41"/>
<path d="M198.048 177.848C197.05 178.4 196.215 174.978 195.373 175.981C193.019 178.786 187.371 178.157 187.371 178.157C187.181 178.083 187.006 177.963 186.855 177.805C186.705 177.647 186.583 177.453 186.496 177.235C186.409 177.018 186.36 176.781 186.351 176.54C186.342 176.299 186.373 176.058 186.443 175.832C186.527 175.561 186.663 175.319 186.841 175.127C187.019 174.934 187.233 174.797 187.464 174.727L189.968 173.968L193.899 165.584L198.184 164.927L198.292 165.141C199.12 166.76 199.654 168.574 199.859 170.463C200.063 172.352 199.932 174.272 199.476 176.095C199.12 177.479 198.635 177.523 198.048 177.848Z" fill="#2F2E41"/>
<path d="M216.847 17.1895L215.081 24.0034L199.811 23.6744C199.863 21.2903 200.528 18.9856 201.713 17.0822C202.898 15.1787 204.543 13.7716 206.42 13.0573C208.296 12.343 210.31 12.3573 212.179 13.0982C214.049 13.839 215.681 15.2694 216.847 17.1895Z" fill="#2F2E41"/>
<path d="M213.173 82.6665L211.275 75.7634L222.652 71.0515L218.348 38.1104C220.977 38.6899 223.344 40.4045 225.01 42.9369C226.677 45.4692 227.531 48.6479 227.413 51.8846L228.885 73.886L213.173 82.6665Z" fill="#3F3D56"/>
<path d="M186.001 64.0561L174.169 67.1417L171.751 53.0254L176.204 45.7742L180.212 44.8485L184.665 50.3253L186.001 64.0561Z" fill="#CCCCCC"/>
<path d="M180.53 64.6717H173.405L172.433 58.8566L171.37 52.4842L172.959 49.7081L176.015 50.8648L179.322 56.4205L180.151 62.0813L180.209 62.4844L180.53 64.6717Z" fill="#E6E6E6"/>
<path d="M192.49 61.279L184.283 62.436L185.747 49.7855L189.054 46.1598L191.917 47.0084L193.826 52.331L192.49 61.279Z" fill="#CCCCCC"/>
<path d="M193.57 53.7951L192.807 58.8881L190.327 76.2422L180.785 79.9471L180.455 79.7298L175.312 76.3193L172.419 58.8496L172.433 58.8566L180.085 62.5896L180.151 62.0813L180.198 61.7133L180.785 57.1916L183.392 53.7951L192.107 51.2504L193.57 53.7951Z" fill="#E6E6E6"/>
<path d="M187.528 53.2567C188.652 53.2567 189.563 52.1515 189.563 50.7883C189.563 49.425 188.652 48.3198 187.528 48.3198C186.403 48.3198 185.492 49.425 185.492 50.7883C185.492 52.1515 186.403 53.2567 187.528 53.2567Z" fill="#E6E6E6"/>
<path d="M182.523 52.0622L177.879 53.0649L177.901 53.2168L182.545 52.2141L182.523 52.0622Z" fill="white"/>
<path d="M180.455 79.7298L175.312 76.3193L172.419 58.8496L172.433 58.8566L171.37 52.4842L172.959 49.7081L176.015 50.8648L179.322 56.4205L180.151 62.0813L180.198 61.7133L180.209 62.4844L180.241 64.6717L180.455 79.7298Z" fill="#F2F2F2"/>
<path d="M175.375 76.341L175.252 76.301L177.789 64.7669L174.884 60.1236L174.986 60.0304L177.928 64.7336L175.375 76.341Z" fill="#CCCCCC"/>
<path d="M176.807 69.7562L176.693 69.8231L180.727 79.9799L180.842 79.913L176.807 69.7562Z" fill="#CCCCCC"/>
<path opacity="0.2" d="M193.069 57.8311L192.592 61.0316L192.567 61.0347L190.429 75.9964L180.886 79.6991L180.829 79.7322L180.791 79.6358L175.416 76.0736L175.354 76.0535L175.387 75.9023L172.521 58.6017L172.536 58.6087L172.218 56.7095L172.455 56.2953L173.189 55.0148L176.242 56.1719L179.55 61.7258L179.599 62.056L179.946 64.4257L180.085 65.3776L180.38 67.3886L180.66 65.2279L180.76 64.4504L181.014 62.4972L183.622 59.1031L184.782 58.7645L185.589 58.5285L186.7 58.2045C186.355 57.9506 186.08 57.5784 185.911 57.1351C185.741 56.6918 185.683 56.1973 185.745 55.7144C185.808 55.2314 185.987 54.7817 186.26 54.4222C186.533 54.0628 186.888 53.8098 187.28 53.6953C187.672 53.5808 188.083 53.6099 188.461 53.7791C188.839 53.9482 189.168 54.2497 189.404 54.6454C189.641 55.041 189.776 55.513 189.791 56.0014C189.806 56.4899 189.702 56.9729 189.49 57.3891L192.337 56.5576L193.039 57.7787L193.069 57.8311Z" fill="black"/>
<path d="M180.759 70.7509H173.634L171.599 58.5631L173.189 55.786L176.242 56.9431L179.551 62.497L180.759 70.7509Z" fill="#E6E6E6"/>
<path d="M190.556 82.3218L181.013 86.0243L175.543 82.3989L172.648 64.9271L180.314 68.6682L181.013 63.2685L183.622 59.8744L192.337 57.329L193.8 59.8744L193.037 64.9657L190.556 82.3218Z" fill="#E6E6E6"/>
<path d="M187.757 59.3346C188.881 59.3346 189.792 58.2294 189.792 56.8661C189.792 55.5029 188.881 54.3977 187.757 54.3977C186.632 54.3977 185.721 55.5029 185.721 56.8661C185.721 58.2294 186.632 59.3346 187.757 59.3346Z" fill="#E6E6E6"/>
<path d="M180.689 85.6886L175.547 82.278L172.653 64.8083L172.668 64.8153L171.604 58.443L173.194 55.6669L176.249 56.8236L179.556 62.3793L180.386 68.0401L180.432 67.672L180.443 68.4432L180.475 70.6304L180.689 85.6886Z" fill="#F2F2F2"/>
<path d="M175.604 82.4186L175.481 82.379L178.018 70.8446L175.113 66.2013L175.215 66.108L178.157 70.8116L175.604 82.4186Z" fill="#CCCCCC"/>
<path d="M177.036 75.8341L176.922 75.901L180.956 86.0578L181.071 85.9909L177.036 75.8341Z" fill="#CCCCCC"/>
<path d="M260.58 163.023L248.748 166.108L246.33 151.992L250.783 144.741L254.791 143.815L259.244 149.292L260.58 163.023Z" fill="#CCCCCC"/>
<path d="M255.109 163.638H247.984L247.012 157.823L245.949 151.451L247.539 148.675L250.594 149.832L253.901 155.387L254.731 161.048L254.788 161.451L255.109 163.638Z" fill="#E6E6E6"/>
<path d="M267.069 160.246L258.862 161.403L260.326 148.752L263.633 145.127L266.496 145.975L268.405 151.298L267.069 160.246Z" fill="#CCCCCC"/>
<path d="M268.149 152.762L267.386 157.855L264.906 175.209L255.364 178.914L255.034 178.697L249.892 175.286L246.998 157.816L247.012 157.823L254.664 161.556L254.731 161.048L254.777 160.68L255.364 156.158L257.971 152.762L266.686 150.217L268.149 152.762Z" fill="#E6E6E6"/>
<path d="M262.107 152.224C263.231 152.224 264.143 151.118 264.143 149.755C264.143 148.392 263.231 147.287 262.107 147.287C260.983 147.287 260.071 148.392 260.071 149.755C260.071 151.118 260.983 152.224 262.107 152.224Z" fill="#E6E6E6"/>
<path d="M257.102 151.029L252.458 152.032L252.48 152.184L257.124 151.181L257.102 151.029Z" fill="white"/>
<path d="M255.034 178.697L249.892 175.286L246.998 157.816L247.012 157.823L245.949 151.451L247.539 148.675L250.594 149.832L253.901 155.387L254.731 161.048L254.777 160.68L254.788 161.451L254.82 163.638L255.034 178.697Z" fill="#F2F2F2"/>
<path d="M249.954 175.308L249.831 175.268L252.368 163.734L249.463 159.091L249.565 158.997L252.507 163.701L249.954 175.308Z" fill="#CCCCCC"/>
<path d="M251.386 168.723L251.272 168.79L255.306 178.947L255.421 178.88L251.386 168.723Z" fill="#CCCCCC"/>
<path d="M283.961 177.568H276.156L275 159.341H285.117L283.961 177.568Z" fill="#E6E6E6"/>
<path d="M285.262 166.702H274.855V169.506H285.262V166.702Z" fill="#F2F2F2"/>
<path d="M287.936 160.65L286.272 160.055L286.25 159.317L278.856 156.676L278.508 157.282L276.844 156.688L275.799 158.507L288 162.865L287.936 160.65Z" fill="#CCCCCC"/>
<path d="M43.1651 154.563L43.1576 154.624L43.1371 154.801L41.0191 173.23L28.0504 179L27.8472 178.882L20.5864 174.701L16.832 157.233L16.5748 156.034L16.6531 155.998L32.7154 148.681L43.1556 154.557L43.1651 154.563Z" fill="#6C63FF"/>
<path d="M27.8472 178.882L20.5864 174.701L16.5748 156.034L16.6531 155.998L27.1176 161.351L27.8472 178.882Z" fill="#6C63FF"/>
<path opacity="0.2" d="M28.0293 178.669L22.5064 165.835L23.2158 162.197L19.875 157.427L19.5906 157.72L22.809 162.316L20.4049 174.649L20.7682 174.753L22.3751 166.509L27.6983 178.879L28.0293 178.669Z" fill="black"/>
<path d="M43.1651 154.79L43.1371 154.801L27.1176 161.577L16.832 157.233L16.5748 156.034L16.6531 155.998L32.7154 148.681L43.1556 154.557L43.1576 154.624L43.1651 154.79Z" fill="#3F3D56"/>
<path d="M27.3974 161.917L24.1318 158.862L24.8782 155.468L34.2081 151.396L40.5525 151.848L43.0717 154.45L43.2582 155.129L27.3974 161.917Z" fill="#6C63FF"/>
<path d="M16.7612 156.034L24.1318 155.695L28.1247 154.051L34.35 151.396L35.5144 149.359L32.6093 148.729L16.7612 156.034Z" fill="#6C63FF"/>
<path d="M31.446 152.393L27.6029 154.028L27.7265 154.455L31.5696 152.82L31.446 152.393Z" fill="#CCCCCC"/>
<path d="M10.4064 177.987H2.60158L1.44531 159.76H11.5626L10.4064 177.987Z" fill="#6C63FF"/>
<path d="M11.7072 167.121H1.30078V169.925H11.7072V167.121Z" fill="#E6E6E6"/>
<path d="M12.1408 158.709H10.4064L10.2136 158.008H2.50534L2.31253 158.709H0.578132L0 160.812H12.7189L12.1408 158.709Z" fill="#3F3D56"/>
<path d="M233.663 177.772H58.4615V178.473H233.663V177.772Z" fill="#3F3D56"/>
</g>
<defs>
<clipPath id="clip0_1_187">
<rect width="288" height="179" fill="white"/>
</clipPath>
</defs>
</svg>
