<svg width="70" height="70" viewBox="0 0 70 70" fill="none" xmlns="http://www.w3.org/2000/svg">
<path d="M54.3867 17.8205C54.3572 18.1158 54.3397 18.4527 54.332 18.818L50.1386 20.8206C49.5513 20.7244 46.6386 20.8939 42.2942 18.7502C41.1928 18.2066 40.1166 17.9178 39.083 17.9178C38.1476 17.9187 37.2258 18.1418 36.3934 18.5686C35.2964 18.3312 33.7159 17.7231 32.7917 17.7253C30.7005 17.7362 25.9459 19.4392 24.6291 19.5847C23.3406 19.7258 22.0139 20.0802 20.6784 20.6445C18.2514 19.938 15.2086 18.7841 13.5789 18.1464L2.1875 9.84375V36.5422L10.5591 40.5256C10.6805 40.3834 10.8194 40.1647 10.9703 39.8934L11.2295 40.0138C11.3564 40.3419 11.4964 40.6685 11.6495 40.9937C10.7308 42.5403 10.6214 44.2827 11.3553 45.7975C11.9842 47.0936 13.1556 48.0036 14.4605 48.2584C14.5316 49.0656 14.8028 49.8466 15.26 50.5236C16.0803 51.7344 17.3841 52.4573 18.7502 52.4573C18.8741 52.4573 18.9973 52.4508 19.1198 52.4377C19.3145 52.9638 19.6 53.4537 19.9708 53.8781C20.7955 54.8264 21.9505 55.37 23.1383 55.37C23.2258 55.37 23.3122 55.3671 23.3975 55.3613C23.5484 55.9344 23.8055 56.4769 24.1642 56.9603C24.99 58.0759 26.2642 58.7398 27.5745 58.7398C28.3883 58.7398 29.1659 58.4905 29.8517 58.0234C31.1773 58.8744 32.3302 59.4727 33.3528 59.8402C33.8658 60.0491 34.3995 60.1562 34.9442 60.1562C36.2327 60.1562 37.4828 59.5547 38.3753 58.5025C38.7067 58.1109 38.9758 57.6734 39.1727 57.2053C39.5583 57.3217 39.9588 57.3814 40.3616 57.3825C41.7309 57.3825 43.0292 56.712 43.9272 55.5395C44.3541 54.9841 44.6631 54.3473 44.835 53.6681C44.9291 53.6747 45.0224 53.678 45.115 53.678C46.6977 53.678 48.2125 52.7494 49.0645 51.2542C49.511 50.4764 49.748 49.5961 49.7525 48.6992C51.3166 48.4663 52.6936 47.3539 53.3641 45.7319C54.0247 44.1339 53.8453 42.3708 52.9233 40.9008L57.1834 38.5C57.2928 38.8741 57.4 39.2186 57.5039 39.4986L67.8125 34.0134V11.6397L54.3867 17.8205ZM54.3856 21.1422C54.4534 22.3256 54.577 23.6633 54.7367 25.06C53.8617 23.59 52.757 22.9195 51.3855 22.5859L54.3856 21.1422ZM48.6675 47.1253C46.3181 46.317 41.428 40.5683 41.428 40.5683H41.5242C42.0219 40.5333 43.097 40.0094 44.3034 40.2598C42.4091 38.6323 40.3255 40.0094 38.9069 39.1661C39.2361 40.2216 40.8188 40.5541 41.2245 40.5672L45.9102 46.0162C48.032 48.4827 46.5544 51.5342 44.427 52.0198C42.9997 51.3253 38.9692 46.5314 38.9692 46.5314C39.107 46.5062 39.9241 46.2503 40.7564 46.3597C38.8347 44.9225 36.6559 46.1694 35.3631 45.267C36.0959 47.0772 38.5098 46.6134 38.7625 46.5697L41.2694 49.77C43.2753 52.3294 41.6992 55.2858 39.5686 55.6861C37.6797 55.0222 36.4536 52.6597 36.4536 52.6597C36.6439 52.6291 37.2805 52.3458 38.1861 52.477C36.575 51.065 34.6992 52.3458 33.5716 51.5419C34.2683 53.06 36.0052 52.7144 36.1025 52.7034C37.8394 55.4389 36.038 58.2914 33.8855 58.3767H33.8833L33.8811 58.3778C32.5883 58.1536 31.2342 57.12 29.7052 56.0591C30.2302 55.4772 30.6939 54.4545 30.6939 54.4545C32.2295 51.6742 30.2367 49.2155 28.1794 49.4266C29.8484 49.8827 31.0997 52.0133 29.797 54.3791L29.225 55.3416C28.6037 56.4736 27.6336 57.1572 26.9205 57.073C25.8223 56.9395 24.2747 55.3361 24.9255 53.0742C25.177 52.8445 27.603 49.1334 27.603 49.1334C29.2709 46.4472 27.3984 43.8758 25.3356 43.9633C26.9784 44.5178 28.1302 46.7206 26.7137 49.0066L24.7417 52.0811C24.0691 53.1683 23.1984 53.7841 22.3683 53.6703C21.0798 53.4953 20.1764 51.9236 20.3831 50.3016C20.3722 50.3114 21.8028 48.7113 21.8028 48.7113C23.7038 46.2273 22.0763 43.4536 20.0167 43.3081C21.5994 44.0453 22.5422 46.3684 20.9267 48.4827L20.2289 49.338C19.4633 50.342 18.5413 50.8528 17.7341 50.6516C16.3253 50.2983 15.5925 47.6623 16.2586 46.9437C16.7825 46.3783 18.2536 44.5878 18.2536 44.5878C20.1534 42.1028 18.5281 39.3302 16.4664 39.1825C18.0502 39.9219 18.993 42.245 17.3775 44.3603L16.6797 45.2134C15.9097 46.2262 14.9844 46.7348 14.1717 46.5281C12.4786 46.0994 11.6331 43.4853 13.253 41.3634C13.253 41.3634 12.7028 39.6156 12.4545 38.8686L11.6386 38.4902C13.5516 34.0331 16.4412 24.1959 16.5747 20.9278C17.9834 21.4298 21.7022 22.4995 22.097 22.5017L22.0948 22.5039C26.098 21.2461 30.2936 21.385 32.2077 20.6456C32.8278 20.4094 34.0616 20.3941 35.3697 21.1422C34.5527 21.8586 33.7805 22.7117 32.9788 23.5069C31.0625 25.4089 23.9378 28.3752 25.3116 31.4945C26.4972 34.1863 29.8364 36.9403 35.4375 32.6167L38.5875 32.1836L43.4864 34.6008L49.7645 41.0484C52.0034 43.3431 50.7358 46.4581 48.6675 47.1253ZM50.2425 40.0214C49.5228 38.6761 47.2795 36.47 45.162 34.6664L45.1489 34.6533C46.1256 34.6927 47.1505 33.1198 48.475 32.9984C47.5497 32.2919 46.0162 33.1078 45.5383 33.2369C42.9034 33.9456 38.8084 30.6305 38.8084 30.6305L34.8906 31.1948C34.8906 31.1948 30.2313 36.8813 26.3058 32.1967C24.1741 29.6527 31.8992 26.3298 33.8023 24.4388C36.2403 22.0161 38.4125 19.052 42.4233 21.0711C45.7548 22.7511 47.0673 22.6472 51.5364 23.4248C52.8686 23.6578 53.7917 24.2681 54.7816 25.4592C55.2475 29.3792 56.0011 33.7269 56.7241 36.7522C56.3511 37.0661 53.1541 39.2164 50.2425 40.0214Z" fill="#9747FF"/>
</svg>
