<svg width="30" height="30" viewBox="0 0 30 30" fill="none" xmlns="http://www.w3.org/2000/svg">
<path d="M6.25 17.5738C6.25 16.3113 6.25 15.6813 6.5275 15.1425C6.80375 14.605 7.3175 14.2375 8.34375 13.505L13.5475 9.7875C14.2475 9.2875 14.6 9.03625 15 9.03625C15.4 9.03625 15.7512 9.28625 16.4525 9.7875L21.6563 13.5038C22.6825 14.2375 23.1962 14.6038 23.4725 15.1425C23.7488 15.6813 23.75 16.3113 23.75 17.5725V23.75C23.75 24.9288 23.75 25.5175 23.3838 25.8838C23.0175 26.25 22.4287 26.25 21.25 26.25H8.75C7.57125 26.25 6.9825 26.25 6.61625 25.8838C6.25 25.5175 6.25 24.9288 6.25 23.75V17.5738Z" fill="#9747FF" fill-opacity="0.25"/>
<path d="M3.75 15.4837C3.75 15.8162 3.75 15.9837 3.855 16.035C3.96 16.0862 4.0925 15.985 4.355 15.7787L13.465 8.69374C14.2025 8.11999 14.5712 7.83374 15 7.83374C15.4288 7.83374 15.7975 8.12124 16.535 8.69374L25.645 15.7787C25.9075 15.9837 26.04 16.0862 26.145 16.035C26.25 15.9837 26.25 15.8162 26.25 15.4837V14.9725C26.25 14.3725 26.25 14.0725 26.1225 13.8125C25.995 13.5525 25.7588 13.3675 25.285 13L16.535 6.19374C15.7975 5.61999 15.4288 5.33374 15 5.33374C14.5712 5.33374 14.2025 5.62124 13.465 6.19374L4.715 13C4.24125 13.3675 4.00375 13.5525 3.8775 13.8125C3.75125 14.0725 3.75 14.3725 3.75 14.9725V15.4837ZM15.625 18.75H14.375C13.712 18.75 13.0761 19.0134 12.6072 19.4822C12.1384 19.9511 11.875 20.5869 11.875 21.25V26.0625C11.875 26.1662 11.9587 26.25 12.0625 26.25H17.9375C17.9872 26.25 18.0349 26.2302 18.0701 26.1951C18.1052 26.1599 18.125 26.1122 18.125 26.0625V21.25C18.125 20.5869 17.8616 19.9511 17.3928 19.4822C16.9239 19.0134 16.288 18.75 15.625 18.75Z" fill="#9747FF"/>
<path d="M21.875 6.25H20.625C20.2798 6.25 20 6.52982 20 6.875V10.625C20 10.9702 20.2798 11.25 20.625 11.25H21.875C22.2202 11.25 22.5 10.9702 22.5 10.625V6.875C22.5 6.52982 22.2202 6.25 21.875 6.25Z" fill="#9747FF"/>
</svg>
