<svg width="704" height="434" viewBox="0 0 704 434" fill="none" xmlns="http://www.w3.org/2000/svg">
<g clip-path="url(#clip0_1_19)">
<path opacity="0.1" d="M704 286.932C704.038 308.987 698.478 330.629 687.926 349.494C687.926 372.565 677.994 393.476 661.883 408.717C657.851 412.533 653.509 415.948 648.911 418.919C648.726 419.046 648.535 419.166 648.345 419.286C648 419.506 647.655 419.726 647.305 419.952L646.978 420.159C631.729 429.362 614.541 434.142 597.083 434.033H133.643C101.686 434.033 72.7569 421.985 51.7969 402.513C30.8369 383.04 17.92 356.091 17.92 326.37C6.18304 306.798 -0.0432289 283.952 -5.35508e-06 260.616C-5.35508e-06 194.549 48.7631 140.99 108.923 140.99C111.052 140.99 113.163 141.07 115.262 141.197C153.009 71.4915 238.154 22.8842 337.071 22.8842C397.883 22.8842 453.471 41.2435 496.049 71.5781C512.178 61.7046 530.395 56.5271 548.923 56.5507C609.071 56.5507 657.846 110.109 657.846 176.176C657.837 180.357 657.632 184.534 657.231 188.691C671.729 199.806 683.547 214.533 691.687 231.631C699.827 248.729 704.05 267.696 704 286.932Z" fill="#6C63FF"/>
<path opacity="0.1" d="M254.154 324.71C387.382 324.71 495.385 321.578 495.385 317.713C495.385 313.849 387.382 310.716 254.154 310.716C120.926 310.716 12.9231 313.849 12.9231 317.713C12.9231 321.578 120.926 324.71 254.154 324.71Z" fill="#6C63FF"/>
<g opacity="0.7">
<path d="M164.308 266.067H87.3846V312.049H164.308V266.067Z" fill="#65617D"/>
<path opacity="0.1" d="M137.846 274.064H114.462V279.395H137.846V274.064Z" fill="black"/>
<path opacity="0.1" d="M134.923 274.73H117.385V278.729H134.923V274.73Z" fill="black"/>
<path d="M242.462 266.067H165.538V312.049H242.462V266.067Z" fill="#65617D"/>
<path opacity="0.1" d="M216 274.064H192.615V279.395H216V274.064Z" fill="black"/>
<path opacity="0.1" d="M213.077 274.73H195.538V278.729H213.077V274.73Z" fill="black"/>
<path d="M164.308 218.753H87.3846V264.734H164.308V218.753Z" fill="#65617D"/>
<path opacity="0.1" d="M137.846 226.749H114.462V232.081H137.846V226.749Z" fill="black"/>
<path opacity="0.1" d="M134.923 227.416H117.385V231.414H134.923V227.416Z" fill="black"/>
<path d="M242.462 218.753H165.538V264.734H242.462V218.753Z" fill="#65617D"/>
<path opacity="0.1" d="M216 226.749H192.615V232.081H216V226.749Z" fill="black"/>
<path opacity="0.1" d="M213.077 227.416H195.538V231.414H213.077V227.416Z" fill="black"/>
<path d="M164.308 170.772H87.3846V216.753H164.308V170.772Z" fill="#65617D"/>
<path opacity="0.1" d="M137.846 178.769H114.462V184.1H137.846V178.769Z" fill="black"/>
<path opacity="0.1" d="M134.923 179.435H117.385V183.433H134.923V179.435Z" fill="black"/>
<path d="M242.462 170.772H165.538V216.753H242.462V170.772Z" fill="#65617D"/>
<path opacity="0.1" d="M216 178.769H192.615V184.1H216V178.769Z" fill="black"/>
<path opacity="0.1" d="M213.077 179.435H195.538V183.433H213.077V179.435Z" fill="black"/>
<path d="M242.462 122.791H165.538V168.773H242.462V122.791Z" fill="#65617D"/>
<path opacity="0.1" d="M216 130.788H192.615V136.119H216V130.788Z" fill="black"/>
<path opacity="0.1" d="M213.077 131.454H195.538V135.453H213.077V131.454Z" fill="black"/>
</g>
<g opacity="0.7">
<path d="M320.615 265.401H243.692V311.382H320.615V265.401Z" fill="#65617D"/>
<path opacity="0.1" d="M294.154 273.397H270.769V278.729H294.154V273.397Z" fill="black"/>
<path opacity="0.1" d="M291.231 274.064H273.692V278.062H291.231V274.064Z" fill="black"/>
<path d="M398.769 265.401H321.846V311.382H398.769V265.401Z" fill="#65617D"/>
<path opacity="0.1" d="M372.308 273.397H348.923V278.729H372.308V273.397Z" fill="black"/>
<path opacity="0.1" d="M369.385 274.064H351.846V278.062H369.385V274.064Z" fill="black"/>
<path d="M320.615 218.086H243.692V264.068H320.615V218.086Z" fill="#65617D"/>
<path opacity="0.1" d="M294.154 226.083H270.769V231.414H294.154V226.083Z" fill="black"/>
<path opacity="0.1" d="M291.231 226.749H273.692V230.748H291.231V226.749Z" fill="black"/>
<path d="M398.769 218.086H321.846V264.068H398.769V218.086Z" fill="#65617D"/>
<path opacity="0.1" d="M372.308 226.083H348.923V231.414H372.308V226.083Z" fill="black"/>
<path opacity="0.1" d="M369.385 226.749H351.846V230.748H369.385V226.749Z" fill="black"/>
<path d="M320.615 170.105H243.692V216.087H320.615V170.105Z" fill="#65617D"/>
<path opacity="0.1" d="M294.154 178.102H270.769V183.433H294.154V178.102Z" fill="black"/>
<path opacity="0.1" d="M291.231 178.769H273.692V182.767H291.231V178.769Z" fill="black"/>
<path d="M398.769 170.105H321.846V216.087H398.769V170.105Z" fill="#65617D"/>
<path opacity="0.1" d="M372.308 178.102H348.923V183.433H372.308V178.102Z" fill="black"/>
<path opacity="0.1" d="M369.385 178.769H351.846V182.767H369.385V178.769Z" fill="black"/>
<path d="M398.769 122.125H321.846V168.106H398.769V122.125Z" fill="#65617D"/>
<path opacity="0.1" d="M372.308 130.121H348.923V135.453H372.308V130.121Z" fill="black"/>
<path opacity="0.1" d="M369.385 130.788H351.846V134.786H369.385V130.788Z" fill="black"/>
</g>
<path opacity="0.1" d="M540.486 0.0733192C540.486 0.0733192 488.677 -3.312 494.769 36.0056C494.769 36.0056 493.538 42.9562 499.372 46.1083C499.372 46.1083 499.465 43.1961 504.689 44.189C506.549 44.5229 508.439 44.6213 510.32 44.4822C512.861 44.2922 515.276 43.2115 517.2 41.4035C517.2 41.4035 531.766 34.8861 537.428 9.1097C537.428 9.1097 541.618 3.48529 541.452 2.0392L532.708 6.08425C532.708 6.08425 535.698 12.9149 533.323 18.5926C533.323 18.5926 533.04 6.33082 531.36 6.59738C531.022 6.65736 526.818 8.9631 526.818 8.9631C526.818 8.9631 531.957 20.8583 528.08 29.5082C528.08 29.5082 529.551 14.8474 525.212 9.82276L519.058 13.7145C519.058 13.7145 525.065 26.003 520.991 36.0323C520.991 36.0323 522.037 20.6518 517.76 14.6608L512.185 19.3723C512.185 19.3723 517.828 31.4874 514.388 39.8041C514.388 39.8041 513.938 21.8979 510.978 20.5451C510.978 20.5451 506.098 25.2099 505.354 27.1158C505.354 27.1158 509.218 35.9123 506.818 40.5505C506.818 40.5505 505.348 28.6219 504.141 28.5553C504.141 28.5553 499.28 36.4588 498.775 41.8833C498.775 41.8833 498.985 33.8198 502.966 27.8022C502.966 27.8022 498.265 28.6752 495.52 31.9806C495.52 31.9806 496.277 26.3895 504.166 25.903C504.166 25.903 508.185 19.9054 509.255 19.5389C509.255 19.5389 501.415 18.8325 496.658 21.1116C496.658 21.1116 500.843 15.8404 510.695 18.2394L516.203 13.368C516.203 13.368 505.877 11.8419 501.495 13.5279C501.495 13.5279 506.535 8.86314 517.686 12.2684L523.692 8.41665C523.692 8.41665 514.886 6.36414 509.643 7.08385C509.643 7.08385 515.181 3.85181 525.452 7.35708L529.76 5.27124C529.76 5.27124 523.311 3.89846 521.421 3.67854C519.532 3.45863 519.434 2.89886 519.434 2.89886C523.52 2.16105 527.714 2.66629 531.551 4.35827C531.551 4.35827 540.646 0.693072 540.486 0.0733192Z" fill="#6C63FF"/>
<path opacity="0.1" d="M476.585 10.076C476.585 10.076 453.2 8.54326 455.938 26.3162C455.938 26.3162 455.391 29.4549 458.012 30.881C458.012 30.881 458.055 29.5482 460.418 30.008C461.258 30.161 462.111 30.2057 462.96 30.1413C464.109 30.0568 465.2 29.5676 466.068 28.7485C466.068 28.7485 472.652 25.8097 475.212 14.161C475.212 14.161 477.102 11.6154 477.028 10.9623L473.077 12.7882C473.077 12.7882 474.431 15.8803 473.366 18.446C473.366 18.446 473.237 12.9015 472.48 13.0348C472.326 13.0348 470.425 14.101 470.425 14.101C470.425 14.101 472.751 19.4789 470.997 23.3907C470.997 23.3907 471.662 16.7666 469.698 14.4942L466.917 16.2535C466.917 16.2535 469.637 21.8046 467.791 26.3362C467.791 26.3362 468.265 19.3856 466.332 16.68L463.815 18.8058C463.815 18.8058 466.363 24.2836 464.812 28.0421C464.812 28.0421 464.609 19.9454 463.268 19.3389C463.268 19.3389 461.065 21.4448 460.726 22.3111C460.726 22.3111 462.474 26.3095 461.391 28.3753C461.391 28.3753 460.726 22.9842 460.16 22.9642C460.16 22.9642 457.969 26.5361 457.735 28.9618C457.845 26.698 458.498 24.5043 459.631 22.5976C458.363 22.8577 457.193 23.5132 456.265 24.4836C456.265 24.4836 456.609 21.9646 460.172 21.738C460.172 21.738 462.018 19.0324 462.474 18.8658C462.474 18.8658 458.929 18.5459 456.782 19.5789C456.782 19.5789 458.671 17.1931 463.126 18.2794L465.588 16.0802C465.588 16.0802 460.923 15.4138 458.942 16.1536C458.942 16.1536 461.218 14.0477 466.258 15.5804L468.966 13.8278C468.966 13.8278 464.991 12.8949 462.615 13.2347C462.615 13.2347 465.12 11.7686 469.76 13.3547L471.698 12.415C471.698 12.415 468.782 11.7886 467.926 11.6953C467.071 11.602 467.028 11.3421 467.028 11.3421C468.875 11.0093 470.772 11.2401 472.505 12.0085C472.505 12.0085 476.658 10.3559 476.585 10.076Z" fill="#6C63FF"/>
<path d="M137.963 429.668C151.629 429.668 162.708 427.64 162.708 425.137C162.708 422.634 151.629 420.605 137.963 420.605C124.297 420.605 113.218 422.634 113.218 425.137C113.218 427.64 124.297 429.668 137.963 429.668Z" fill="#6C63FF"/>
<path d="M148.197 417.727C149.327 416.73 150.149 415.384 150.554 413.868C150.862 412.342 150.258 410.536 148.905 409.943C147.391 409.317 145.772 410.456 144.548 411.602C143.323 412.749 141.914 414.061 140.314 413.815C141.138 413.004 141.755 411.975 142.105 410.83C142.454 409.685 142.524 408.461 142.308 407.277C142.238 406.787 142.046 406.327 141.754 405.945C140.911 404.972 139.391 405.385 138.382 406.151C135.182 408.59 134.289 413.302 134.271 417.533C133.951 416.007 134.222 414.415 134.215 412.868C134.209 411.322 133.809 409.536 132.585 408.717C131.829 408.277 130.98 408.061 130.123 408.09C128.689 408.03 127.083 408.19 126.105 409.33C124.874 410.743 125.2 413.115 126.258 414.661C127.317 416.207 128.935 417.2 130.425 418.273C131.616 419.042 132.632 420.092 133.397 421.345C133.489 421.52 133.563 421.706 133.618 421.898H142.64C144.658 420.786 146.527 419.382 148.197 417.727Z" fill="#6C63FF"/>
<path d="M441.452 227.916C441.402 227.411 441.235 226.928 440.967 226.511C440.7 226.094 440.339 225.757 439.92 225.53C439.567 225.367 439.187 225.283 438.803 225.282C438.419 225.281 438.039 225.364 437.685 225.526C437.332 225.687 437.012 225.924 436.744 226.223C436.477 226.521 436.268 226.875 436.129 227.263L422.462 258.403L419.385 381.021H424.308L426.154 258.677L441.194 229.848C441.466 229.25 441.556 228.573 441.452 227.916Z" fill="#3F3D56"/>
<path opacity="0.1" d="M661.883 408.717C657.851 412.533 653.509 415.948 648.911 418.919C648.839 419.029 648.759 419.131 648.671 419.226C648.183 419.674 647.602 419.99 646.978 420.146C631.729 429.349 614.541 434.128 597.083 434.02H258.732C219.963 429.702 196.308 423.977 196.308 417.693C196.308 412.822 210.511 408.284 234.966 404.485C237.502 404.085 240.146 403.699 242.898 403.326C244.593 403.095 246.326 402.872 248.098 402.659L251.108 402.279C253.339 402.004 255.631 401.735 257.982 401.473H258.172L260.634 401.206C262.714 400.973 264.837 400.753 267.003 400.54L268.578 400.387L272.597 400C275.206 399.747 277.873 399.505 280.597 399.274C282.857 399.083 285.155 398.892 287.489 398.701C311.157 396.801 338.443 395.369 368.135 394.442L376.615 394.129L379.471 394.063L385.502 393.916L387.92 393.863L390.462 393.809L392.271 393.776L400.763 393.629L405.126 393.563H406.018C416.336 393.43 426.847 393.361 437.551 393.356C458.708 393.356 479.225 393.629 498.775 394.149C510 394.442 520.882 394.816 531.422 395.269H531.52C561.908 396.562 589.108 398.467 611.618 400.833L612.031 400.88C617.809 401.486 623.28 402.133 628.412 402.799C633.243 403.426 637.778 404.085 641.988 404.758C643.446 404.992 644.862 405.231 646.24 405.465L646.591 405.531C652.425 406.551 657.545 407.591 661.883 408.717Z" fill="#6C63FF"/>
<path d="M648.911 418.919C648.839 419.029 648.759 419.131 648.671 419.226C648.183 419.674 647.602 419.99 646.979 420.146C645.734 420.523 644.454 420.747 643.163 420.812H642.775C642.038 420.839 641.3 420.812 640.566 420.732C640.03 420.648 639.489 420.61 638.948 420.619H638.874C638.087 420.738 637.314 420.946 636.566 421.238C634.901 421.733 633.185 421.997 631.459 422.025H630.843C628.911 422.025 626.954 421.951 625.015 421.965C624.702 421.965 624.4 421.965 624.074 421.965C620.751 422.058 617.446 422.631 614.123 422.691H613.059C609.803 422.605 606.474 421.852 603.883 419.719C603.361 419.345 602.937 418.831 602.652 418.226C602.432 417.589 602.358 416.903 602.437 416.227C602.499 415.021 602.714 413.708 603.551 412.895C604.077 412.458 604.68 412.143 605.323 411.969C606.449 411.576 607.582 411.196 608.708 410.816C609.834 410.436 611.12 410.03 612.332 409.643L612.566 409.563L613.243 409.343L613.68 409.183C614.21 408.999 614.718 408.749 615.194 408.437C615.822 408.007 616.354 407.431 616.751 406.751C616.819 406.631 616.892 406.504 616.954 406.378C617.016 406.251 616.954 406.171 616.911 406.064C616.806 405.231 616.726 404.378 616.591 403.565C614.859 403.131 613.28 402.163 612.043 400.78C610.981 399.639 610.086 398.329 609.391 396.895C607.859 393.776 607.071 390.291 605.926 386.979C604.172 381.941 601.619 377.289 599.046 372.678C596.695 368.426 594.332 364.161 591.662 360.143C589.883 357.477 587.969 354.938 586.209 352.266C581.231 344.809 577.659 336.363 575.699 327.409C575.399 325.691 574.973 324.002 574.425 322.358C573.366 319.559 571.428 317.28 569.926 314.721C568.312 311.963 567.206 308.892 566.671 305.678C566.363 303.852 565.846 301.879 564.166 301.68L563.988 302.059C560.505 309.39 556.929 316.853 551.68 322.838C550.84 323.717 550.072 324.674 549.385 325.697C548.833 326.688 548.34 327.716 547.908 328.775C547.077 330.677 545.974 332.424 544.64 333.953C544.243 334.388 543.811 334.783 543.348 335.133C542.733 335.617 542.049 335.988 541.323 336.232C541.037 336.327 540.745 336.398 540.449 336.446C540.449 336.526 540.48 336.599 540.486 336.679C540.492 336.759 540.523 336.852 540.535 336.939C541.441 342.27 541.053 347.765 539.409 352.886C539.366 353.046 539.317 353.199 539.262 353.359C539.007 354.105 538.73 354.838 538.431 355.558C537.68 357.324 536.788 359.017 536.086 360.809C535.969 361.116 535.852 361.422 535.748 361.729C533.286 368.866 533.902 376.836 533.582 384.506C533.553 386.184 533.37 387.854 533.034 389.491C532.615 391.337 531.945 393.243 531.575 395.149C531.239 396.578 531.211 398.072 531.495 399.514L531.348 399.574C530.689 399.84 530.019 400.08 529.348 400.307V400.407C529.588 401.899 529.822 403.392 530.062 404.878C530.265 406.158 530.505 407.544 531.329 408.45C531.554 408.65 531.76 408.874 531.945 409.117C532.431 409.943 532 411.036 532.092 412.015C532.228 413.402 533.409 414.581 533.225 415.961C533.142 416.373 532.967 416.757 532.716 417.08C532.465 417.402 532.146 417.654 531.785 417.813C531.482 417.962 531.164 418.071 530.837 418.14L530.634 418.186C530.265 418.26 529.895 418.3 529.526 418.34C524.942 418.833 520.295 419.326 515.754 418.486C514.855 418.32 513.963 418.1 513.052 418.02C511.902 417.964 510.749 418.015 509.606 418.173C501.181 419.037 492.708 419.215 484.259 418.706C482.062 418.573 479.539 418.186 478.375 416.154C477.409 414.468 477.76 412.289 478.246 410.363C478.385 409.655 478.637 408.978 478.991 408.364C479.031 408.297 479.076 408.234 479.126 408.177C480.259 406.651 482.388 406.558 484.222 406.618L490.215 406.811C490.806 406.863 491.4 406.813 491.975 406.664C492.948 406.358 493.686 405.518 494.597 405.045C495.742 404.452 497.182 404.378 498.006 403.366L498.111 403.219C498.256 403.004 498.392 402.782 498.517 402.553C498.517 402.506 498.572 402.459 498.603 402.413C498.626 402.371 498.65 402.331 498.677 402.293C499.434 401.213 500.757 400.853 501.834 400.167C501.997 400.064 502.151 399.946 502.295 399.814L502.419 399.694C501.259 398.798 500.248 397.696 499.428 396.435C499.111 396.067 498.878 395.624 498.745 395.142C498.669 394.78 498.695 394.402 498.819 394.056C498.845 393.971 498.878 393.888 498.917 393.809L498.948 393.743C499.366 392.85 500.228 392.043 500.702 391.13C500.72 391.101 500.734 391.07 500.745 391.037C501.397 389.704 501.526 387.638 500.56 386.566C501.052 377.789 503.28 369.239 503.772 360.436C503.969 356.951 503.889 353.452 504.037 349.954C504.185 346.455 504.529 343.063 504.892 339.631C505.705 331.787 507.674 324.104 507.397 316.227C507.373 315.493 507.402 314.757 507.483 314.028C507.48 313.975 507.48 313.921 507.483 313.868C507.68 312.254 508.145 310.692 508.855 309.256C509.748 307.635 510.758 306.092 511.877 304.645C515.662 299.314 520.209 293.983 521.557 287.425C522.252 284.04 523.791 280.941 525.323 277.896C526.228 276.083 527.169 274.224 528.615 272.891C529.399 272.304 530.126 271.634 530.788 270.892C531.797 269.479 531.834 267.526 532.431 265.847C532.739 264.974 533.212 264.174 533.446 263.275C533.446 263.182 533.489 263.095 533.508 263.002C533.644 262.094 533.716 261.176 533.723 260.256C533.723 259.989 533.76 259.73 533.791 259.47C534.15 256.835 534.857 254.27 535.889 251.853C536.019 251.546 536.142 251.233 536.265 250.926C533.425 249.133 530.921 246.78 528.88 243.989C528.188 243.086 527.588 242.105 527.089 241.064C525.822 238.338 525.532 235.233 524.935 232.247C523.508 225.13 520.24 218.426 519.785 211.149C519.649 208.93 519.785 206.637 519.071 204.538C518.874 203.971 518.642 203.419 518.375 202.886C518.265 202.659 518.16 202.432 518.049 202.219L517.926 201.966L517.612 201.3L517.108 201.726C504.518 212.401 491.301 222.178 477.539 230.994L476.357 231.754C475.742 232.075 475.206 232.551 474.794 233.14C474.745 233.227 474.702 233.313 474.659 233.4C474.375 234.033 474.302 234.733 474.043 235.399C473.489 236.925 472.068 237.898 470.615 238.351C467.988 239.083 465.201 238.694 462.831 237.265C462.529 237.099 462.215 236.925 461.945 236.732C461.225 237.164 460.466 237.515 459.68 237.778C457.219 238.551 454.64 238.518 452.092 238.511C449.545 238.505 446.942 238.511 444.529 239.418C442.917 240.011 441.354 240.99 439.68 241.084C439.487 241.097 439.294 241.097 439.102 241.084C438.147 240.965 437.219 240.67 436.357 240.211L435.852 239.964C435.591 239.83 435.336 239.681 435.089 239.518C434.82 239.338 434.57 239.125 434.345 238.885C434.019 238.53 433.782 238.092 433.655 237.612C433.572 237.264 433.572 236.9 433.655 236.552C433.679 236.396 433.753 236.255 433.865 236.152C433.974 236.082 434.1 236.047 434.228 236.052C434.933 236.044 435.638 236.109 436.332 236.246C436.74 236.306 437.152 236.331 437.563 236.319H437.785C438.148 236.277 438.499 236.154 438.816 235.96C439.134 235.765 439.411 235.501 439.631 235.186C439.698 235.088 439.752 234.981 439.791 234.866C439.865 234.679 439.903 234.477 439.902 234.273C439.905 234.222 439.905 234.171 439.902 234.12C439.643 233.993 439.385 233.867 439.139 233.713C439.009 233.64 438.886 233.56 438.763 233.48L438.689 233.427C438.468 233.264 438.262 233.079 438.074 232.874C437.954 232.745 437.849 232.602 437.76 232.447C437.597 232.206 437.474 231.935 437.397 231.647C436.89 231.533 436.365 231.549 435.865 231.694C435.194 231.894 434.517 232.321 433.852 232.467C433.517 232.558 433.164 232.542 432.837 232.421C431.877 232.047 431.539 230.781 431.335 229.695C431.299 229.488 431.255 229.275 431.225 229.062C431.154 228.652 431.154 228.232 431.225 227.822C431.522 226.891 432.09 226.089 432.843 225.537L434.862 223.704L435.009 223.571C435.009 223.391 434.942 223.211 434.917 223.031C434.846 222.619 434.846 222.197 434.917 221.785C435.215 220.855 435.782 220.056 436.535 219.506L441.003 215.434C441.84 214.674 442.751 213.875 443.84 213.795C445.459 213.675 446.751 215.127 447.963 216.294C449.489 217.76 451.342 218.959 453.379 219.106C454.348 219.154 455.318 219.009 456.24 218.679L456.763 218.493C456.652 218.246 456.542 218 456.437 217.753C456.259 217.347 456.08 216.933 455.908 216.52C458.529 216.34 460.911 214.781 462.899 212.915C464.886 211.049 466.591 208.843 468.597 207.011C470.763 205.011 473.249 203.525 475.446 201.599C480.554 197.115 483.945 190.524 489.409 186.572C491.305 185.193 493.495 184.093 494.788 182.041C495.188 181.374 495.489 180.708 495.902 180.041C497.212 178.042 499.459 177.123 501.311 175.736C503.163 174.35 504.775 172.318 506.283 170.365C507.354 168.972 508.431 167.58 509.452 166.147C510.394 164.248 511.188 162.262 512.172 160.389C513.008 158.807 513.983 157.316 515.083 155.938C515.335 155.405 515.594 154.871 515.871 154.352C516.148 153.832 516.351 153.479 516.609 153.019C516.788 152.719 516.972 152.432 517.163 152.139C516.603 151.066 516.068 150.14 515.815 149.734L515.692 149.554C515.149 148.927 514.57 148.34 513.957 147.794C513.314 147.689 512.677 147.542 512.049 147.354C508.251 146.227 504.901 143.779 502.515 140.387C500.128 136.994 498.838 132.846 498.843 128.582C498.84 128.562 498.84 128.542 498.843 128.522C498.845 125.468 499.516 122.458 500.8 119.739C501.059 119.192 501.335 118.666 501.637 118.153C501.356 118.057 501.082 117.936 500.819 117.793C500.369 117.553 499.978 117.204 499.674 116.773C499.423 116.389 499.261 115.946 499.2 115.481C499.096 114.382 499.248 113.273 499.643 112.255C499.811 111.765 500.002 111.285 500.215 110.816C500.232 110.788 500.247 110.759 500.259 110.729C503.009 104.731 508.874 101.046 514.732 100.786C521.052 100.513 527.206 103.725 532.191 108.323C533.678 109.645 535.009 111.16 536.154 112.835C538.757 116.753 539.932 121.765 540.277 126.729C540.406 128.265 540.382 129.811 540.203 131.341C540.138 131.886 540.035 132.425 539.895 132.954C539.815 133.267 539.711 133.58 539.6 133.893C539.489 134.206 539.422 134.346 539.323 134.56V134.593C539.231 134.806 539.126 135.006 539.022 135.206L538.966 135.293L538.886 135.433C538.935 135.559 538.991 135.692 539.046 135.819C539.102 135.946 539.151 136.066 539.212 136.186H539.286C540.517 136.292 541.655 136.479 542.911 136.585C543.501 136.616 544.087 136.714 544.659 136.879C545.889 137.278 546.819 138.251 547.852 139.038C550.412 140.997 553.563 141.91 556.08 143.936C559.772 146.921 561.619 151.853 563.859 156.271C566.812 162.189 571.625 167.227 573.748 173.557C574.708 176.432 575.672 179.302 576.64 182.167C578.529 187.785 580.419 193.429 582.985 198.727C586.554 206.098 591.385 212.722 594.246 220.465C594.53 221.241 595.063 221.88 595.748 222.265C599.647 228.227 603.114 234.508 606.117 241.05C607.699 244.509 609.194 248.101 609.655 251.933C610.016 255.344 609.754 258.799 608.886 262.102C608.395 264.064 607.793 265.991 607.083 267.873C606.806 268.532 606.6 269.223 606.468 269.932C606.468 270.005 606.468 270.079 606.468 270.152C606.345 271.432 606.794 272.698 606.917 273.977C607.02 275.007 606.913 276.049 606.603 277.029C606.554 277.183 606.499 277.336 606.443 277.489C606.062 278.268 605.738 279.08 605.477 279.915C605.455 280.016 605.438 280.118 605.428 280.221C605.225 281.667 605.754 283.127 606.043 284.573C607.126 289.798 606.929 295.235 606.659 300.567C606.517 303.232 608.505 305.371 610.166 307.337C613.243 311.022 615.649 315.334 617.969 319.626C619.235 321.804 620.301 324.112 621.151 326.516C622.031 329.262 622.382 332.167 622.868 335.013C624.437 343.809 629.563 351.58 630.954 360.396C631.599 364.433 633.243 368.206 635.711 371.312C636.454 372.143 637.139 373.035 637.76 373.977C638.189 374.729 638.53 375.534 638.775 376.376C639.381 378.336 639.666 380.395 639.619 382.461C639.521 383.449 639.573 384.449 639.772 385.419C640.351 387.465 642.419 388.591 643.274 390.517C644.129 392.443 643.539 394.909 643.889 397.095C644.164 398.857 645.044 400.442 646.351 401.533C645.859 401.999 645.342 402.426 644.812 402.866C645.302 403.278 645.732 403.768 646.086 404.319C646.329 404.688 646.535 405.083 646.702 405.498C647.514 407.544 647.539 409.976 648.203 412.162C648.486 413.068 648.886 414.028 648.64 414.948C648.535 415.211 648.464 415.489 648.431 415.774C648.431 416.374 649.009 416.767 649.231 417.313C649.311 417.588 649.324 417.881 649.268 418.162C649.212 418.444 649.089 418.705 648.911 418.919Z" fill="url(#paint0_linear_1_19)"/>
<path d="M518.671 159.023C522.437 157.924 525.791 155.625 529.077 153.352L540.529 145.455C537.421 145.189 534.738 142.79 533.145 139.884C531.551 136.979 530.892 133.6 530.351 130.281C525.428 132.36 521.163 135.886 517.188 139.611C515.612 141.084 512.265 143.309 511.778 145.609C511.292 147.908 514.394 149.774 515.594 151.313C516.006 151.826 519.889 158.657 518.671 159.023Z" fill="#FBBEBE"/>
<path opacity="0.1" d="M518.671 159.023C522.437 157.924 525.791 155.625 529.077 153.352L540.529 145.455C537.421 145.189 534.738 142.79 533.145 139.884C531.551 136.979 530.892 133.6 530.351 130.281C525.428 132.36 521.163 135.886 517.188 139.611C515.612 141.084 512.265 143.309 511.778 145.609C511.292 147.908 514.394 149.774 515.594 151.313C516.006 151.826 519.889 158.657 518.671 159.023Z" fill="black"/>
<path d="M456.092 224.25C454.074 225.37 451.926 226.516 449.668 226.356C447.637 226.216 445.785 225.023 444.258 223.564C443.028 222.405 441.76 220.958 440.142 221.078C439.058 221.158 438.148 221.951 437.311 222.704L432.849 226.749C432.098 227.296 431.531 228.091 431.231 229.015C431.143 229.643 431.178 230.283 431.335 230.894C431.538 231.974 431.877 233.234 432.837 233.6C433.797 233.967 434.843 233.18 435.858 232.88C436.479 232.709 437.13 232.721 437.744 232.917C438.358 233.113 438.912 233.485 439.348 233.993C439.71 234.379 439.929 234.896 439.963 235.446C439.963 236.652 438.732 237.445 437.6 237.505C436.468 237.565 435.385 237.165 434.265 237.239C434.197 237.229 434.128 237.235 434.063 237.255C433.997 237.275 433.936 237.309 433.882 237.355C433.829 237.4 433.785 237.458 433.752 237.522C433.72 237.587 433.699 237.658 433.692 237.732C433.623 238.153 433.652 238.586 433.778 238.991C433.904 239.396 434.122 239.761 434.412 240.051C434.997 240.629 435.678 241.081 436.418 241.384C437.279 241.845 438.208 242.138 439.163 242.25C441.052 242.383 442.788 241.25 444.578 240.591C446.991 239.711 449.588 239.684 452.135 239.691C454.683 239.698 457.268 239.738 459.711 238.965C462.154 238.192 464.474 236.479 465.428 233.927C465.54 233.688 465.577 233.417 465.532 233.154C465.437 232.873 465.254 232.637 465.015 232.487C461.582 229.735 460.191 226.39 456.326 224.41L456.092 224.25Z" fill="#FBBEBE"/>
<path opacity="0.1" d="M456.092 224.25C454.074 225.37 451.926 226.516 449.668 226.356C447.637 226.216 445.785 225.023 444.258 223.564C443.028 222.405 441.76 220.958 440.142 221.078C439.058 221.158 438.148 221.951 437.311 222.704L432.849 226.749C432.098 227.296 431.531 228.091 431.231 229.015C431.143 229.643 431.178 230.283 431.335 230.894C431.538 231.974 431.877 233.234 432.837 233.6C433.797 233.967 434.843 233.18 435.858 232.88C436.479 232.709 437.13 232.721 437.744 232.917C438.358 233.113 438.912 233.485 439.348 233.993C439.71 234.379 439.929 234.896 439.963 235.446C439.963 236.652 438.732 237.445 437.6 237.505C436.468 237.565 435.385 237.165 434.265 237.239C434.197 237.229 434.128 237.235 434.063 237.255C433.997 237.275 433.936 237.309 433.882 237.355C433.829 237.4 433.785 237.458 433.752 237.522C433.72 237.587 433.699 237.658 433.692 237.732C433.623 238.153 433.652 238.586 433.778 238.991C433.904 239.396 434.122 239.761 434.412 240.051C434.997 240.629 435.678 241.081 436.418 241.384C437.279 241.845 438.208 242.138 439.163 242.25C441.052 242.383 442.788 241.25 444.578 240.591C446.991 239.711 449.588 239.684 452.135 239.691C454.683 239.698 457.268 239.738 459.711 238.965C462.154 238.192 464.474 236.479 465.428 233.927C465.54 233.688 465.577 233.417 465.532 233.154C465.437 232.873 465.254 232.637 465.015 232.487C461.582 229.735 460.191 226.39 456.326 224.41L456.092 224.25Z" fill="black"/>
<path d="M528.154 153.179C527.199 152.512 526.115 152.091 524.987 151.948C523.858 151.806 522.714 151.947 521.643 152.359C519.499 153.195 517.575 154.584 516.037 156.404C514.501 158.1 513.171 160.001 512.08 162.062C511.034 164.061 510.234 166.154 509.188 168.146C507.342 171.711 504.929 174.857 502.505 177.976C500.997 179.915 499.471 181.881 497.538 183.307C495.606 184.733 493.446 185.606 492.135 187.585C491.723 188.211 491.428 188.918 491.021 189.551C489.735 191.59 487.551 192.683 485.649 194.049C480.197 197.981 476.806 204.525 471.711 208.983C469.514 210.902 467.034 212.408 464.874 214.368C462.861 216.187 461.181 218.366 459.175 220.232C457.169 222.098 454.812 223.637 452.197 223.811C453.945 228.029 456.031 232.167 459.028 235.453C462.025 238.738 466.517 240.837 470.609 239.551C472.062 239.098 473.483 238.138 474.037 236.619C474.211 235.838 474.454 235.077 474.763 234.346C475.174 233.76 475.708 233.287 476.32 232.967C492.748 222.583 508.407 210.834 523.157 197.828C527.114 194.336 531.04 191.21 535.101 187.832C536.558 186.713 537.904 185.436 539.12 184.02C540.814 181.829 541.872 179.146 542.161 176.306C542.45 173.466 541.957 170.597 540.745 168.06C539.656 166.118 538.407 164.287 537.015 162.588C534.483 159.018 531.5 155.851 528.154 153.179Z" fill="#6C63FF"/>
<path opacity="0.1" d="M528.154 153.179C527.199 152.512 526.115 152.091 524.987 151.948C523.858 151.806 522.714 151.947 521.643 152.359C519.499 153.195 517.575 154.584 516.037 156.404C514.501 158.1 513.171 160.001 512.08 162.062C511.034 164.061 510.234 166.154 509.188 168.146C507.342 171.711 504.929 174.857 502.505 177.976C500.997 179.915 499.471 181.881 497.538 183.307C495.606 184.733 493.446 185.606 492.135 187.585C491.723 188.211 491.428 188.918 491.021 189.551C489.735 191.59 487.551 192.683 485.649 194.049C480.197 197.981 476.806 204.525 471.711 208.983C469.514 210.902 467.034 212.408 464.874 214.368C462.861 216.187 461.181 218.366 459.175 220.232C457.169 222.098 454.812 223.637 452.197 223.811C453.945 228.029 456.031 232.167 459.028 235.453C462.025 238.738 466.517 240.837 470.609 239.551C472.062 239.098 473.483 238.138 474.037 236.619C474.211 235.838 474.454 235.077 474.763 234.346C475.174 233.76 475.708 233.287 476.32 232.967C492.748 222.583 508.407 210.834 523.157 197.828C527.114 194.336 531.04 191.21 535.101 187.832C536.558 186.713 537.904 185.436 539.12 184.02C540.814 181.829 541.872 179.146 542.161 176.306C542.45 173.466 541.957 170.597 540.745 168.06C539.656 166.118 538.407 164.287 537.015 162.588C534.483 159.018 531.5 155.851 528.154 153.179Z" fill="black"/>
<path d="M501.711 400.393C500.634 401.06 499.311 401.433 498.554 402.513C498.308 402.859 498.142 403.266 497.877 403.599C497.058 404.638 495.606 404.685 494.468 405.278C493.557 405.745 492.819 406.611 491.852 406.884C491.274 407.033 490.678 407.082 490.086 407.031L484.105 406.838C482.209 406.778 479.988 406.884 478.886 408.557C478.528 409.17 478.274 409.847 478.135 410.556C477.674 412.469 477.299 414.634 478.265 416.314C479.422 418.313 481.957 418.719 484.142 418.853C492.581 419.358 501.044 419.18 509.459 418.32C510.597 418.162 511.746 418.111 512.892 418.166C513.803 418.246 514.695 418.466 515.594 418.633C520.129 419.466 524.769 418.979 529.348 418.486C530.122 418.446 530.884 418.27 531.606 417.966C531.965 417.808 532.284 417.557 532.533 417.235C532.783 416.913 532.957 416.531 533.04 416.12C533.231 414.748 532.043 413.581 531.914 412.202C531.822 411.229 532.252 410.143 531.76 409.317C531.576 409.073 531.37 408.85 531.145 408.65C530.32 407.724 530.08 406.371 529.877 405.105L528.8 398.261C528.77 397.779 528.587 397.322 528.283 396.968C528.057 396.792 527.795 396.675 527.52 396.628C522.831 395.482 518.025 396.528 513.366 397.168C510.969 397.549 508.544 397.68 506.123 397.561C505.077 397.488 504.671 397.355 503.889 398.094C503.108 398.834 502.689 399.774 501.711 400.393Z" fill="#3F3D56"/>
<path d="M614.948 408.63C614.125 409.128 613.243 409.503 612.326 409.743C609.91 410.507 607.497 411.305 605.089 412.135C604.448 412.307 603.847 412.62 603.323 413.055C602.486 413.855 602.271 415.161 602.209 416.387C602.13 417.062 602.203 417.749 602.425 418.386C602.713 418.984 603.136 419.493 603.655 419.866C606.412 422.125 610.012 422.824 613.471 422.824C616.929 422.824 620.363 422.191 623.821 422.091C628 421.971 632.289 422.611 636.308 421.345C637.075 421.038 637.872 420.828 638.683 420.719C639.222 420.71 639.762 420.748 640.295 420.832C642.451 421.063 644.627 420.848 646.708 420.199C647.334 420.049 647.917 419.735 648.406 419.286C648.648 419.059 648.821 418.758 648.902 418.423C648.984 418.087 648.969 417.733 648.862 417.407C648.64 416.867 648.074 416.474 648.068 415.881C648.097 415.596 648.165 415.317 648.271 415.054C648.523 414.141 648.117 413.188 647.834 412.289C647.04 409.716 647.169 406.758 645.748 404.525C644.326 402.293 641.717 401.373 639.237 401.02C637.221 400.712 635.172 400.775 633.175 401.206C630.929 401.726 628.831 402.812 626.628 403.506C624.071 404.302 621.4 404.575 618.751 404.312C616.991 404.152 617.594 404.452 616.997 406.051C616.574 407.118 615.858 408.018 614.948 408.63Z" fill="#3F3D56"/>
<path d="M516.615 149.78C526.472 149.78 534.462 141.128 534.462 130.455C534.462 119.781 526.472 111.129 516.615 111.129C506.759 111.129 498.769 119.781 498.769 130.455C498.769 141.128 506.759 149.78 516.615 149.78Z" fill="#FBBEBE"/>
<path d="M645.994 401.72C640.455 406.871 632.979 409.123 625.686 409.203C622.609 409.237 619.415 408.877 616.794 407.151C616.609 406.058 616.535 404.878 616.351 403.785C613.169 403.066 610.702 400.26 609.163 397.155C607.625 394.049 606.843 390.597 605.699 387.305C603.951 382.294 601.391 377.676 598.831 373.091C596.48 368.866 594.123 364.628 591.446 360.636C589.674 357.97 587.754 355.465 586 352.806C581.031 345.404 577.465 337.011 575.508 328.109C575.208 326.402 574.782 324.724 574.234 323.091C573.175 320.305 571.237 318.04 569.742 315.501C568.129 312.761 567.023 309.708 566.486 306.511C566.185 304.698 565.668 302.739 563.988 302.553C560.455 309.983 556.855 317.533 551.514 323.577C550.674 324.45 549.906 325.4 549.218 326.416C548.667 327.403 548.174 328.427 547.742 329.482C546.913 331.373 545.812 333.109 544.48 334.626C543.363 335.92 541.892 336.789 540.283 337.105C541.47 343.509 540.763 350.154 538.265 356.098C537.52 357.857 536.628 359.536 535.926 361.316C533.059 368.646 533.723 376.916 533.422 384.866C533.395 386.532 533.214 388.191 532.88 389.818C532.135 393.07 530.597 396.528 531.342 399.78C523.625 402.972 515.052 402.772 506.88 401.426C505.282 401.268 503.73 400.758 502.32 399.927C501.161 399.038 500.15 397.943 499.329 396.688C499.013 396.322 498.779 395.882 498.646 395.402C498.326 393.883 499.877 392.737 500.597 391.404C501.317 390.071 501.446 387.958 500.455 386.866C500.948 378.142 503.175 369.626 503.668 360.876C503.865 357.411 503.785 353.932 503.932 350.46C504.08 346.988 504.425 343.609 504.782 340.197C505.594 332.407 507.563 324.77 507.286 316.94C507.202 314.53 507.714 312.14 508.769 310.016C509.659 308.403 510.667 306.869 511.785 305.431C515.563 300.147 520.105 294.849 521.452 288.325C522.148 284.96 523.686 281.881 525.212 278.855C526.117 277.049 527.059 275.203 528.499 273.877C529.282 273.29 530.01 272.621 530.671 271.878C531.68 270.472 531.717 268.546 532.314 266.867C532.622 266 533.095 265.201 533.323 264.308C533.511 263.321 533.604 262.316 533.6 261.309C533.797 258.084 534.942 254.965 536.148 252.013C533.311 250.234 530.807 247.897 528.763 245.122C528.077 244.221 527.479 243.245 526.979 242.21C525.711 239.504 525.422 236.419 524.825 233.453C523.403 226.376 520.135 219.719 519.68 212.488C519.545 210.283 519.68 208.004 518.972 205.918C518.646 205.035 518.263 204.178 517.828 203.352C517.399 202.541 517.072 201.671 516.855 200.767C516.462 198.801 517.003 196.768 516.855 194.769C516.708 193.003 516.012 191.35 515.668 189.624C515.316 187.379 515.256 185.091 515.489 182.827C515.643 180.161 516.179 177.409 515.969 174.777C515.63 170.421 516.143 166.037 517.473 161.91C518.804 157.783 520.923 154.007 523.692 150.826L523.834 150.673C525.009 149.34 526.295 148.161 527.354 146.748C528.794 144.855 529.815 142.63 531.335 140.79C532 139.971 532.751 139.238 533.409 138.411C534.013 137.545 534.682 136.733 535.409 135.986C535.777 135.616 536.223 135.349 536.708 135.208C537.192 135.068 537.702 135.058 538.191 135.179C538.314 136.173 538.602 137.135 539.04 138.018C540.32 138.125 541.459 138.318 542.732 138.425C543.323 138.455 543.909 138.553 544.48 138.718C545.68 139.111 546.64 140.051 547.668 140.857C550.228 142.81 553.372 143.716 555.889 145.728C559.582 148.694 561.428 153.592 563.655 157.984C566.603 163.868 571.409 168.873 573.502 175.163L576.388 183.72C578.277 189.304 580.166 194.909 582.726 200.173C586.289 207.504 591.114 214.108 593.975 221.778C594.261 222.547 594.792 223.181 595.471 223.564C599.367 229.482 602.83 235.721 605.828 242.223C607.409 245.662 608.905 249.234 609.36 253.039C610.031 258.417 608.677 263.855 606.794 268.879C606.49 269.599 606.282 270.362 606.178 271.145C606.055 272.418 606.505 273.671 606.628 274.944C606.747 276.132 606.583 277.334 606.154 278.435C605.771 279.21 605.448 280.016 605.188 280.848C604.855 282.381 605.446 283.94 605.766 285.473C606.849 290.664 606.652 296.042 606.382 301.36C606.24 304.025 608.228 306.138 609.883 308.09C612.96 311.749 615.36 316.027 617.68 320.299C618.941 322.465 620.005 324.76 620.855 327.149C621.735 329.875 622.086 332.76 622.572 335.593C624.135 344.329 629.255 352.053 630.646 360.816C631.29 364.831 632.933 368.579 635.397 371.658C636.14 372.491 636.824 373.382 637.446 374.324C637.871 375.071 638.21 375.873 638.455 376.71C639.061 378.655 639.346 380.701 639.299 382.754C639.201 383.736 639.253 384.729 639.452 385.693C640.031 387.725 642.099 388.845 642.948 390.757C643.797 392.67 643.212 395.122 643.563 397.295C643.828 399.049 644.697 400.63 645.994 401.72Z" fill="#6C63FF"/>
<path d="M459.785 218.253C457.766 219.372 455.618 220.519 453.36 220.359C451.329 220.219 449.477 219.026 447.951 217.566C446.72 216.407 445.452 214.961 443.834 215.081C442.751 215.161 441.84 215.954 441.003 216.707L436.542 220.752C435.791 221.298 435.223 222.093 434.923 223.018C434.835 223.645 434.871 224.285 435.028 224.897C435.231 225.976 435.569 227.236 436.529 227.602C437.489 227.969 438.535 227.183 439.551 226.883C440.171 226.711 440.823 226.724 441.437 226.92C442.051 227.116 442.605 227.487 443.04 227.996C443.403 228.382 443.622 228.899 443.655 229.448C443.655 230.655 442.425 231.448 441.292 231.508C440.16 231.568 439.077 231.168 437.957 231.241C437.889 231.232 437.821 231.237 437.755 231.257C437.689 231.277 437.628 231.311 437.575 231.357C437.521 231.403 437.477 231.46 437.444 231.525C437.412 231.589 437.391 231.661 437.385 231.734C437.315 232.155 437.345 232.588 437.47 232.993C437.596 233.399 437.814 233.763 438.105 234.053C438.689 234.631 439.37 235.083 440.111 235.386C440.972 235.847 441.901 236.14 442.855 236.252C444.745 236.386 446.48 235.253 448.271 234.593C450.683 233.713 453.28 233.687 455.828 233.693C458.375 233.7 460.96 233.74 463.403 232.967C465.846 232.194 468.166 230.481 469.12 227.929C469.233 227.691 469.269 227.419 469.225 227.156C469.129 226.875 468.947 226.639 468.708 226.49C465.274 223.737 463.883 220.392 460.018 218.413L459.785 218.253Z" fill="#FBBEBE"/>
<path d="M507.932 118.579C506.868 118.766 505.963 119.546 504.954 119.979C504.277 120.264 503.551 120.39 502.825 120.348C502.1 120.307 501.391 120.099 500.745 119.739C500.294 119.502 499.9 119.155 499.594 118.726C498.769 117.486 499.058 115.687 499.563 114.234C501.951 107.364 508.326 103.112 514.64 102.839C520.954 102.566 527.095 105.758 532.074 110.323C533.555 111.64 534.883 113.146 536.031 114.807C538.628 118.706 539.803 123.684 540.148 128.615C540.354 130.685 540.227 132.777 539.772 134.799C539.554 135.782 539.155 136.707 538.598 137.519C538.042 138.331 537.341 139.013 536.535 139.524C534.775 140.497 532.665 140.191 530.886 139.258C529.108 138.325 527.582 136.852 526.055 135.446C525.364 134.724 524.546 134.16 523.649 133.787C523.202 133.614 522.719 133.585 522.257 133.703C521.795 133.822 521.375 134.082 521.046 134.453C520.222 135.526 520.431 137.285 519.68 138.451C518.929 139.618 517.366 139.784 516.049 139.784C514.732 139.784 513.397 139.664 512.609 138.531C511.889 137.505 511.994 136.006 512.265 134.713C512.535 133.42 512.997 132.141 512.88 130.814C512.628 128.149 510.474 126.509 509.803 124.057C509.366 122.451 510.326 121.771 510.228 120.319C510.154 119.039 508.886 118.413 507.932 118.579Z" fill="#3F3D56"/>
<path opacity="0.1" d="M564 302.386V302.553C560.468 309.983 556.868 317.533 551.526 323.577C550.687 324.45 549.919 325.4 549.231 326.416C548.679 327.403 548.186 328.427 547.754 329.482C546.925 331.373 545.824 333.109 544.492 334.626L540.037 337.039L554.191 257.071L564 302.386Z" fill="black"/>
<path opacity="0.1" d="M543.428 181.354C542.212 182.77 540.865 184.048 539.409 185.166C535.348 188.498 531.409 191.643 527.465 195.162C524.285 197.965 521.06 200.711 517.791 203.399C517.362 202.588 517.035 201.718 516.818 200.813C516.425 198.847 516.966 196.815 516.818 194.816C516.671 193.05 515.975 191.397 515.631 189.671C515.279 187.425 515.219 185.137 515.452 182.874C515.606 180.208 516.142 177.456 515.932 174.824C515.592 170.457 516.107 166.063 517.444 161.927C518.782 157.792 520.911 154.009 523.692 150.826L523.834 150.673C524.496 150.256 525.197 149.917 525.926 149.66C526.999 149.253 528.144 149.118 529.273 149.266C530.402 149.414 531.485 149.84 532.437 150.513C535.783 153.185 538.766 156.352 541.298 159.923C542.691 161.622 543.939 163.453 545.028 165.394C546.244 167.929 546.74 170.796 546.456 173.636C546.171 176.476 545.118 179.161 543.428 181.354Z" fill="black"/>
<path d="M531.846 147.181C530.891 146.514 529.808 146.093 528.679 145.951C527.55 145.809 526.406 145.949 525.335 146.362C523.192 147.198 521.268 148.586 519.729 150.407C518.193 152.103 516.864 154.004 515.772 156.064C514.726 158.064 513.926 160.156 512.88 162.149C511.034 165.714 508.622 168.859 506.197 171.978C504.689 173.917 503.163 175.883 501.231 177.309C499.299 178.735 497.138 179.608 495.828 181.587C495.415 182.214 495.12 182.92 494.714 183.553C493.428 185.593 491.243 186.685 489.342 188.052C483.889 191.983 480.499 198.527 475.403 202.986C473.206 204.905 470.726 206.411 468.566 208.37C466.554 210.189 464.874 212.369 462.868 214.234C460.862 216.1 458.505 217.64 455.889 217.813C457.637 222.031 459.723 226.17 462.72 229.455C465.717 232.74 470.209 234.84 474.302 233.553C475.754 233.1 477.175 232.141 477.729 230.621C477.904 229.84 478.147 229.079 478.455 228.349C478.867 227.762 479.4 227.29 480.012 226.969C496.44 216.585 512.099 204.837 526.849 191.83C530.806 188.338 534.732 185.213 538.794 181.834C540.25 180.716 541.597 179.438 542.812 178.022C544.506 175.832 545.564 173.148 545.853 170.308C546.142 167.468 545.65 164.599 544.437 162.062C543.348 160.121 542.1 158.29 540.708 156.591C538.175 153.02 535.192 149.853 531.846 147.181Z" fill="#6C63FF"/>
<g opacity="0.1">
<path d="M517.28 137.099C516.049 137.099 514.628 136.979 513.84 135.846C513.126 134.819 513.225 133.32 513.495 132.027C513.766 130.734 514.228 129.455 514.111 128.129C513.858 125.463 511.705 123.824 511.034 121.372C510.597 119.765 511.557 119.086 511.458 117.633C511.372 116.374 510.111 115.747 509.157 115.914C508.092 116.1 507.188 116.88 506.178 117.313C505.501 117.598 504.776 117.724 504.05 117.683C503.324 117.641 502.615 117.434 501.969 117.073C501.519 116.836 501.125 116.489 500.819 116.06C499.994 114.821 500.283 113.022 500.788 111.569C500.788 111.515 500.831 111.469 500.849 111.415C500.335 112.307 499.902 113.251 499.557 114.234C499.052 115.687 498.763 117.486 499.588 118.726C499.894 119.155 500.288 119.502 500.738 119.739C501.384 120.099 502.094 120.307 502.819 120.348C503.545 120.39 504.27 120.264 504.948 119.979C505.957 119.546 506.862 118.766 507.926 118.579C508.88 118.413 510.142 119.039 510.228 120.299C510.326 121.751 509.366 122.431 509.803 124.037C510.462 126.489 512.615 128.155 512.88 130.794C513.003 132.127 512.554 133.407 512.265 134.693C511.975 135.979 511.895 137.485 512.609 138.511C513.397 139.644 514.806 139.751 516.049 139.764C517.292 139.778 518.892 139.684 519.68 138.431C520.02 137.802 520.244 137.107 520.338 136.386C519.502 137.032 518.332 137.112 517.28 137.099Z" fill="black"/>
<path d="M537.766 136.859C536.006 137.832 533.895 137.525 532.117 136.592C530.338 135.659 528.812 134.186 527.286 132.78C526.595 132.058 525.777 131.494 524.88 131.121C524.433 130.949 523.949 130.92 523.488 131.038C523.026 131.156 522.605 131.416 522.277 131.787C521.859 132.456 521.595 133.224 521.508 134.026C521.828 133.822 522.184 133.695 522.554 133.652C522.923 133.61 523.297 133.653 523.649 133.78C524.546 134.153 525.364 134.717 526.055 135.439C527.582 136.845 529.132 138.325 530.886 139.251C532.64 140.177 534.775 140.491 536.535 139.518C538.092 138.531 539.226 136.919 539.692 135.033C539.187 135.792 538.528 136.416 537.766 136.859Z" fill="black"/>
</g>
<path d="M384.615 423.338C394.811 423.338 403.077 414.387 403.077 403.346C403.077 392.304 394.811 383.354 384.615 383.354C374.419 383.354 366.154 392.304 366.154 403.346C366.154 414.387 374.419 423.338 384.615 423.338Z" fill="#3F3D56"/>
<path opacity="0.1" d="M384.615 423.338C394.811 423.338 403.077 414.387 403.077 403.346C403.077 392.304 394.811 383.354 384.615 383.354C374.419 383.354 366.154 392.304 366.154 403.346C366.154 414.387 374.419 423.338 384.615 423.338Z" fill="black"/>
<path d="M384.615 416.007C391.073 416.007 396.308 410.338 396.308 403.346C396.308 396.353 391.073 390.684 384.615 390.684C378.158 390.684 372.923 396.353 372.923 403.346C372.923 410.338 378.158 416.007 384.615 416.007Z" fill="#65617D"/>
<path opacity="0.1" d="M384.615 416.007C391.073 416.007 396.308 410.338 396.308 403.346C396.308 396.353 391.073 390.684 384.615 390.684C378.158 390.684 372.923 396.353 372.923 403.346C372.923 410.338 378.158 416.007 384.615 416.007Z" fill="black"/>
<path d="M370.462 372.025L382.572 401.68C382.753 402.124 383.047 402.503 383.42 402.773C383.792 403.043 384.229 403.191 384.677 403.201C385.125 403.211 385.567 403.081 385.95 402.828C386.332 402.575 386.64 402.209 386.837 401.773L401.231 370.026L370.462 372.025Z" fill="#3F3D56"/>
<path opacity="0.1" d="M370.462 372.025L382.572 401.68C382.753 402.124 383.047 402.503 383.42 402.773C383.792 403.043 384.229 403.191 384.677 403.201C385.125 403.211 385.567 403.081 385.95 402.828C386.332 402.575 386.64 402.209 386.837 401.773L401.231 370.026L370.462 372.025Z" fill="black"/>
<path d="M269.538 423.338C279.734 423.338 288 414.387 288 403.346C288 392.304 279.734 383.354 269.538 383.354C259.342 383.354 251.077 392.304 251.077 403.346C251.077 414.387 259.342 423.338 269.538 423.338Z" fill="#3F3D56"/>
<path opacity="0.1" d="M269.538 423.338C279.734 423.338 288 414.387 288 403.346C288 392.304 279.734 383.354 269.538 383.354C259.342 383.354 251.077 392.304 251.077 403.346C251.077 414.387 259.342 423.338 269.538 423.338Z" fill="black"/>
<path d="M269.538 416.007C275.996 416.007 281.231 410.338 281.231 403.346C281.231 396.353 275.996 390.684 269.538 390.684C263.081 390.684 257.846 396.353 257.846 403.346C257.846 410.338 263.081 416.007 269.538 416.007Z" fill="#65617D"/>
<path opacity="0.1" d="M269.538 416.007C275.996 416.007 281.231 410.338 281.231 403.346C281.231 396.353 275.996 390.684 269.538 390.684C263.081 390.684 257.846 396.353 257.846 403.346C257.846 410.338 263.081 416.007 269.538 416.007Z" fill="black"/>
<path d="M255.385 372.025L267.495 401.68C267.676 402.124 267.97 402.503 268.343 402.773C268.716 403.043 269.152 403.191 269.6 403.201C270.048 403.211 270.49 403.081 270.873 402.828C271.255 402.575 271.563 402.209 271.76 401.773L286.154 370.026L255.385 372.025Z" fill="#3F3D56"/>
<path opacity="0.1" d="M255.385 372.025L267.495 401.68C267.676 402.124 267.97 402.503 268.343 402.773C268.716 403.043 269.152 403.191 269.6 403.201C270.048 403.211 270.49 403.081 270.873 402.828C271.255 402.575 271.563 402.209 271.76 401.773L286.154 370.026L255.385 372.025Z" fill="black"/>
<path d="M444.529 229.248C444.479 228.744 444.312 228.261 444.044 227.844C443.776 227.427 443.416 227.09 442.997 226.863C442.644 226.7 442.264 226.615 441.88 226.615C441.496 226.614 441.116 226.697 440.762 226.859C440.408 227.02 440.088 227.257 439.821 227.556C439.554 227.854 439.345 228.208 439.206 228.595L428.615 257.071L425.538 385.02H430.462L432.308 257.344L444.271 231.181C444.543 230.582 444.633 229.906 444.529 229.248Z" fill="#3F3D56"/>
<path d="M226.769 375.024L243.385 363.695L422.769 362.029L427.385 375.024H226.769Z" fill="#6C63FF"/>
<path d="M226.769 387.019V375.024L430.634 372.891L430.437 381.021H230.462V387.019H226.769Z" fill="#3F3D56"/>
<path d="M252.615 430.335C262.811 430.335 271.077 421.384 271.077 410.343C271.077 399.301 262.811 390.351 252.615 390.351C242.419 390.351 234.154 399.301 234.154 410.343C234.154 421.384 242.419 430.335 252.615 430.335Z" fill="#3F3D56"/>
<path d="M252.615 423.004C259.073 423.004 264.308 417.336 264.308 410.343C264.308 403.35 259.073 397.681 252.615 397.681C246.158 397.681 240.923 403.35 240.923 410.343C240.923 417.336 246.158 423.004 252.615 423.004Z" fill="#65617D"/>
<path d="M238.462 379.022L250.572 408.677C250.753 409.121 251.047 409.501 251.42 409.77C251.792 410.04 252.229 410.188 252.677 410.198C253.125 410.208 253.567 410.079 253.95 409.826C254.332 409.573 254.64 409.206 254.837 408.77L269.231 377.023L238.462 379.022Z" fill="#3F3D56"/>
<path d="M396 430.335C406.196 430.335 414.462 421.384 414.462 410.343C414.462 399.301 406.196 390.351 396 390.351C385.804 390.351 377.538 399.301 377.538 410.343C377.538 421.384 385.804 430.335 396 430.335Z" fill="#3F3D56"/>
<path d="M396 423.004C402.458 423.004 407.692 417.336 407.692 410.343C407.692 403.35 402.458 397.681 396 397.681C389.543 397.681 384.308 403.35 384.308 410.343C384.308 417.336 389.543 423.004 396 423.004Z" fill="#65617D"/>
<path d="M381.846 379.022L393.957 408.677C394.137 409.121 394.431 409.501 394.804 409.77C395.177 410.04 395.613 410.188 396.062 410.198C396.51 410.208 396.952 410.079 397.334 409.826C397.717 409.573 398.025 409.206 398.222 408.77L412.615 377.023L381.846 379.022Z" fill="#3F3D56"/>
<path d="M326.769 322.711H249.846V368.693H326.769V322.711Z" fill="#65617D"/>
<path opacity="0.1" d="M300.308 330.708H276.923V336.039H300.308V330.708Z" fill="black"/>
<path opacity="0.1" d="M297.385 331.374H279.846V335.373H297.385V331.374Z" fill="black"/>
<path d="M404.923 322.711H328V368.693H404.923V322.711Z" fill="#65617D"/>
<path opacity="0.1" d="M378.462 330.708H355.077V336.039H378.462V330.708Z" fill="black"/>
<path opacity="0.1" d="M375.538 331.374H358V335.373H375.538V331.374Z" fill="black"/>
<path d="M326.769 275.397H249.846V321.378H326.769V275.397Z" fill="#65617D"/>
<path opacity="0.1" d="M300.308 283.393H276.923V288.725H300.308V283.393Z" fill="black"/>
<path opacity="0.1" d="M297.385 284.06H279.846V288.058H297.385V284.06Z" fill="black"/>
<path d="M404.923 275.397H328V321.378H404.923V275.397Z" fill="#65617D"/>
<path opacity="0.1" d="M378.462 283.393H355.077V288.725H378.462V283.393Z" fill="black"/>
<path opacity="0.1" d="M375.538 284.06H358V288.058H375.538V284.06Z" fill="black"/>
<path d="M326.769 227.416H249.846V273.397H326.769V227.416Z" fill="#65617D"/>
<path opacity="0.1" d="M300.308 235.413H276.923V240.744H300.308V235.413Z" fill="black"/>
<path opacity="0.1" d="M297.385 236.079H279.846V240.077H297.385V236.079Z" fill="black"/>
<path d="M404.923 227.416H328V273.397H404.923V227.416Z" fill="#65617D"/>
<path opacity="0.1" d="M378.462 235.413H355.077V240.744H378.462V235.413Z" fill="black"/>
<path opacity="0.1" d="M375.538 236.079H358V240.077H375.538V236.079Z" fill="black"/>
<path d="M404.923 179.435H328V225.417H404.923V179.435Z" fill="#65617D"/>
<path opacity="0.1" d="M378.462 187.432H355.077V192.763H378.462V187.432Z" fill="black"/>
<path opacity="0.1" d="M375.538 188.098H358V192.097H375.538V188.098Z" fill="black"/>
</g>
<defs>
<linearGradient id="paint0_linear_1_19" x1="540.203" y1="422.764" x2="540.203" y2="100.8" gradientUnits="userSpaceOnUse">
<stop stop-color="#808080" stop-opacity="0.25"/>
<stop offset="0.54" stop-color="#808080" stop-opacity="0.12"/>
<stop offset="1" stop-color="#808080" stop-opacity="0.1"/>
</linearGradient>
<clipPath id="clip0_1_19">
<rect width="704" height="434" fill="white"/>
</clipPath>
</defs>
</svg>
