<svg width="70" height="70" viewBox="0 0 70 70" fill="none" xmlns="http://www.w3.org/2000/svg">
<path d="M13.125 48.1249C8.75002 51.7999 7.29169 62.7082 7.29169 62.7082C7.29169 62.7082 18.2 61.2499 21.875 56.8749C23.9459 54.4249 23.9167 50.6624 21.6125 48.3874C20.4788 47.3053 18.9855 46.6801 17.419 46.6317C15.8526 46.5832 14.3234 47.115 13.125 48.1249ZM35 43.7499L26.25 34.9999C27.8021 30.9732 29.7564 27.1134 32.0834 23.4791C35.4818 18.0453 40.2139 13.5713 45.8296 10.4827C51.4453 7.39405 57.7578 5.79349 64.1667 5.83324C64.1667 13.7666 61.8917 27.7082 46.6667 37.9166C42.9821 40.2453 39.0738 42.1995 35 43.7499Z" stroke="#9747FF" stroke-width="2" stroke-linecap="round" stroke-linejoin="round"/>
<path d="M26.25 35H11.6667C11.6667 35 13.2709 26.1625 17.5 23.3333C22.225 20.1833 32.0834 23.3333 32.0834 23.3333M35 43.75V58.3334C35 58.3334 43.8375 56.7292 46.6667 52.5C49.8167 47.775 46.6667 37.9167 46.6667 37.9167" stroke="#9747FF" stroke-width="2" stroke-linecap="round" stroke-linejoin="round"/>
</svg>
