<svg width="71" height="66" viewBox="0 0 71 66" fill="none" xmlns="http://www.w3.org/2000/svg">
<path d="M70.7966 6.57707C49.9043 -0.849576 27.1956 -1.46301 5.93282 4.82488C5.08765 5.02713 4.29189 5.39762 3.59307 5.91421C2.89425 6.43081 2.30669 7.08293 1.86548 7.83163C1.42426 8.58033 1.13844 9.41026 1.02507 10.2719C0.911696 11.1335 0.973107 12.0091 1.20563 12.8464C2.36938 17.5168 4.06688 22.8827 6.10563 27.7477C6.14063 27.8614 6.19532 27.8068 6.19532 27.693C5.90001 25.4114 7.65438 22.5305 11.0953 21.4827C27.6314 16.2184 45.4281 16.454 61.8191 22.1543C62.4237 22.3604 63.0634 22.4436 63.7007 22.3989C64.3379 22.3541 64.9597 22.1824 65.5296 21.8938C66.0995 21.6052 66.6059 21.2055 67.0191 20.7183C67.4322 20.2311 67.7437 19.6662 67.9353 19.0568C69.9741 12.4943 70.7966 8.03832 71 6.92269C71.035 6.71488 70.8513 6.63394 70.7966 6.57707ZM20.39 21.0146C17.8853 21.5374 14.4225 22.3599 11.8238 23.2218C6.62844 25.0133 6.86907 31.3352 9.63626 33.3521C9.83969 32.1796 11.0953 30.5849 12.4953 30.0468C17.6819 28.008 23.2513 26.7896 28.8819 26.2864C26.0206 25.1249 23.2294 23.4602 20.4272 21.0124L20.39 21.0146ZM61.7491 33.6714C54.2853 30.1637 46.194 28.1882 37.9535 27.8617C29.713 27.5352 21.4907 28.8643 13.7728 31.7705C11.2988 32.7046 9.75001 35.7146 11.2988 38.5714C14.0054 43.4624 17.0758 48.1429 20.4841 52.5736C19.9941 50.8761 20.8603 47.7327 24.1853 46.7046C33.3816 43.8783 43.0306 45.0771 49.4444 47.6736C51.2556 48.4021 53.8194 47.9602 55.2566 45.8077C57.7077 42.0323 59.9369 38.1173 61.9328 34.0827C62.0225 33.9011 61.9328 33.7655 61.7491 33.6714ZM46.8478 56.3339C44.1583 54.9744 41.6982 53.2022 39.5569 51.0818C38.5659 50.0908 37.1069 48.6668 35.5691 46.9693C32.0581 46.9693 28.65 47.3214 25.0056 48.4852C21.6216 49.5439 21.3044 53.453 22.7853 55.4918C25.29 58.6133 27.0466 60.2977 29.8488 63.1939C31.3338 64.6505 33.328 65.471 35.4081 65.4812C37.4882 65.4914 39.4904 64.6906 40.9897 63.2486C43.1772 61.0611 44.5225 59.6021 46.9944 56.7999C47.1409 56.6511 47.0863 56.3908 46.8478 56.3339Z" fill="#9747FF"/>
</svg>
