<svg width="30" height="30" viewBox="0 0 30 30" fill="none" xmlns="http://www.w3.org/2000/svg">
<path d="M10.5 3.81006C10.5 3.61115 10.579 3.42038 10.7197 3.27973C10.8603 3.13908 11.0511 3.06006 11.25 3.06006H18.75C18.9489 3.06006 19.1397 3.13908 19.2803 3.27973C19.421 3.42038 19.5 3.61115 19.5 3.81006V7.50006H23.25C23.4489 7.50006 23.6397 7.57908 23.7803 7.71973C23.921 7.86038 24 8.05115 24 8.25006V14.3461L26.451 15.0286C26.5566 15.0579 26.6545 15.11 26.7378 15.1813C26.8211 15.2526 26.8878 15.3412 26.9331 15.4411C26.9785 15.5409 27.0014 15.6494 27.0002 15.759C26.9991 15.8687 26.9739 15.9767 26.9265 16.0756L24.189 21.7576C23.9324 21.4684 23.6056 21.2502 23.2401 21.1241C22.8747 20.998 22.4829 20.9682 22.1026 21.0375C21.7222 21.1069 21.3662 21.2731 21.0688 21.52C20.7713 21.767 20.5426 22.0864 20.4045 22.4476L20.3895 22.4821C20.2537 22.7871 20.0793 23.0734 19.8705 23.3341C19.482 23.8141 19.1235 24.0001 18.7605 24.0001C18.4005 24.0001 18.0375 23.8111 17.6415 23.3251C17.4224 23.0509 17.2399 22.7493 17.0985 22.4281C16.9337 22.0003 16.6422 21.633 16.263 21.3754C15.8837 21.1179 15.4348 20.9823 14.9764 20.9869C14.518 20.9914 14.0719 21.1359 13.6979 21.401C13.3239 21.6661 13.0397 22.0391 12.8835 22.4701C12.7469 22.778 12.5709 23.0669 12.36 23.3296C11.97 23.8126 11.61 24.0001 11.25 24.0001C10.8885 24.0001 10.53 23.8126 10.1415 23.3341C9.9248 23.0631 9.74521 22.7645 9.6075 22.4461C9.46693 22.0793 9.2328 21.7557 8.92839 21.5075C8.62398 21.2593 8.2599 21.0951 7.87235 21.0313C7.4848 20.9674 7.08728 21.0061 6.71933 21.1435C6.35138 21.2809 6.02581 21.5123 5.775 21.8146L3.072 16.0696C3.02569 15.9709 3.00143 15.8633 3.00093 15.7543C3.00043 15.6453 3.02369 15.5375 3.06909 15.4384C3.1145 15.3394 3.18095 15.2514 3.26383 15.1806C3.34671 15.1098 3.44403 15.0579 3.549 15.0286L6 14.3446V8.25156C6 8.05265 6.07902 7.86188 6.21967 7.72123C6.36032 7.58058 6.55109 7.50156 6.75 7.50156H10.5V3.81006ZM18 4.56006H12V7.50006H18V4.56006ZM22.5 13.9276V9.00156H7.5V13.9261L13.785 12.1741C14.5754 11.9537 15.4111 11.9537 16.2015 12.1741L22.5 13.9276ZM17.0985 22.4281L17.1015 22.4341V22.4386L17.0985 22.4281ZM23.232 23.0851L23.2275 23.0701C23.1887 22.915 23.1014 22.7763 22.9783 22.6743C22.8552 22.5723 22.7027 22.5123 22.5431 22.5031C22.3835 22.4939 22.2251 22.536 22.0911 22.6231C21.957 22.7102 21.8543 22.8379 21.798 22.9876L21.7905 23.0026L21.7605 23.0791C21.5698 23.5092 21.3237 23.9127 21.0285 24.2791C20.4915 24.9391 19.746 25.5001 18.75 25.5001C17.754 25.5001 17.007 24.9376 16.467 24.2761C16.1534 23.8885 15.8949 23.4595 15.699 23.0011L15.6915 22.9846C15.6371 22.8424 15.5407 22.7202 15.4152 22.6342C15.2896 22.5481 15.1409 22.5023 14.9887 22.5028C14.8365 22.5033 14.6881 22.5501 14.5631 22.6369C14.4381 22.7238 14.3425 22.8466 14.289 22.9891L14.2815 23.0041L14.2515 23.0806C14.2215 23.1516 14.1745 23.2496 14.1105 23.3746C13.9452 23.6949 13.7482 23.9979 13.5225 24.2791C12.9885 24.9391 12.246 25.5001 11.25 25.5001C10.254 25.5001 9.51 24.9376 8.973 24.2776C8.66043 23.8899 8.40299 23.4608 8.208 23.0026L8.202 22.9876C8.14565 22.8379 8.04297 22.7087 7.90893 22.6216C7.7749 22.5345 7.61652 22.4924 7.45691 22.5016C7.2973 22.5108 7.14481 22.5708 7.02169 22.6728C6.89857 22.7748 6.81126 22.9135 6.7725 23.0686L6.7695 23.0806L6.7485 23.1496C6.61209 23.5627 6.41 23.9512 6.15 24.3001C5.6895 24.9151 4.956 25.5001 3.75 25.5001C3.55109 25.5001 3.36032 25.5791 3.21967 25.7197C3.07902 25.8604 3 26.0511 3 26.2501C3 26.449 3.07902 26.6397 3.21967 26.7804C3.36032 26.921 3.55109 27.0001 3.75 27.0001C5.544 27.0001 6.6855 26.0881 7.35 25.2001C7.426 25.0991 7.496 24.9986 7.56 24.8986C7.636 25.0056 7.719 25.1141 7.809 25.2241C8.49 26.0641 9.621 27.0001 11.25 27.0001C12.879 27.0001 14.007 26.0611 14.688 25.2211C14.8 25.0811 14.902 24.9441 14.994 24.8101C15.089 24.9461 15.1925 25.0841 15.3045 25.2241C15.99 26.0656 17.121 27.0001 18.75 27.0001C20.379 27.0001 21.51 26.0641 22.191 25.2241C22.278 25.1171 22.359 25.0111 22.434 24.9061C22.499 25.0071 22.569 25.1091 22.644 25.2121C23.31 26.1061 24.4545 27.0226 26.259 27.0001C26.3575 26.9989 26.4548 26.9783 26.5453 26.9395C26.6359 26.9007 26.7179 26.8445 26.7867 26.774C26.8555 26.7035 26.9098 26.6202 26.9464 26.5288C26.983 26.4373 27.0012 26.3396 27 26.2411C26.9988 26.1426 26.9782 26.0453 26.9395 25.9547C26.9007 25.8642 26.8444 25.7822 26.774 25.7134C26.7035 25.6446 26.6201 25.5903 26.5287 25.5537C26.4373 25.5171 26.3395 25.4989 26.241 25.5001C25.0365 25.5151 24.306 24.9316 23.8485 24.3166C23.5886 23.9643 23.3874 23.5722 23.253 23.1556L23.232 23.0851Z" fill="#9747FF"/>
</svg>
