<svg width="70" height="56" viewBox="0 0 70 56" fill="none" xmlns="http://www.w3.org/2000/svg">
<path d="M15.75 17.5C18.0706 17.5 20.2962 16.5781 21.9372 14.9372C23.5781 13.2962 24.5 11.0706 24.5 8.75C24.5 6.42936 23.5781 4.20376 21.9372 2.56282C20.2962 0.921872 18.0706 0 15.75 0C13.4294 0 11.2038 0.921872 9.56282 2.56282C7.92187 4.20376 7 6.42936 7 8.75C7 11.0706 7.92187 13.2962 9.56282 14.9372C11.2038 16.5781 13.4294 17.5 15.75 17.5ZM56 17.5C58.3206 17.5 60.5462 16.5781 62.1872 14.9372C63.8281 13.2962 64.75 11.0706 64.75 8.75C64.75 6.42936 63.8281 4.20376 62.1872 2.56282C60.5462 0.921872 58.3206 0 56 0C53.6794 0 51.4538 0.921872 49.8128 2.56282C48.1719 4.20376 47.25 6.42936 47.25 8.75C47.25 11.0706 48.1719 13.2962 49.8128 14.9372C51.4538 16.5781 53.6794 17.5 56 17.5ZM0 32.6703C0 33.95 1.05 35 2.32969 35H25.7359C22.8266 32.4297 21 28.6781 21 24.5C21 23.6688 21.0766 22.8594 21.2078 22.0609C19.7203 21.3719 18.0688 21 16.3297 21H11.6594C5.22813 21 0 26.2281 0 32.6703ZM35 35C37.625 35 40.0203 34.0375 41.8578 32.4516C42.1313 32.0469 42.4266 31.6531 42.7328 31.2812C43.0281 30.9203 43.3563 30.6141 43.7172 30.3734C44.8438 28.6891 45.5 26.6766 45.5 24.5C45.5 18.7031 40.7969 14 35 14C29.2031 14 24.5 18.7031 24.5 24.5C24.5 30.2969 29.2031 35 35 35ZM42.1531 41.5844C41.0266 40.9391 40.1734 39.8125 39.8781 38.5H28.5906C20.5297 38.5 14 45.0297 14 53.0797C14 54.6875 15.3016 56 16.9203 56H49.7984C49.5688 55.4313 49.4484 54.8078 49.4484 54.2062V53.8781C49.3063 53.8016 49.1531 53.7141 49.0109 53.6266L48.7266 53.7906C46.8891 54.8516 44.2969 54.6656 42.7438 52.7297C42.2516 52.1172 41.8031 51.4719 41.3875 50.8047L41.3766 50.7828L41.3656 50.7609L41.1031 50.3125L41.0922 50.2906L41.0813 50.2687C40.7094 49.5906 40.3813 48.8906 40.0969 48.1578C39.2 45.8391 40.3375 43.4984 42.175 42.4375L42.4703 42.2734V41.7703L42.175 41.6063L42.1531 41.5844ZM58.3297 21H53.6594C51.9203 21 50.2688 21.3828 48.7813 22.0609C48.9234 22.8484 48.9891 23.6688 48.9891 24.5C48.9891 26.4031 48.6063 28.2078 47.9281 29.8594C48.2016 29.9578 48.4641 30.0781 48.7047 30.2203L48.9891 30.3844C49.1313 30.2969 49.2734 30.2094 49.4266 30.1328V29.8047C49.4266 27.6828 50.8813 25.5281 53.3422 25.1453C54.2063 25.0141 55.0922 24.9375 55.9891 24.9375C56.8859 24.9375 57.7719 25.0031 58.6359 25.1453C61.0969 25.5281 62.5516 27.6828 62.5516 29.8047V30.1328C62.6938 30.2094 62.8469 30.2969 62.9891 30.3844L63.2734 30.2203C65.1109 29.1594 67.7031 29.3453 69.2563 31.2812C69.5078 31.5875 69.7484 31.9156 69.9781 32.2328C69.7484 25.9875 64.6188 21 58.3188 21H58.3297ZM68.3156 38.9266C69.0047 38.5328 69.3547 37.7125 69.0594 36.9578C68.8297 36.3563 68.5563 35.7766 68.25 35.2188L67.9984 34.7812C67.6594 34.2234 67.2875 33.6984 66.8828 33.1953C66.3797 32.5719 65.4938 32.4625 64.8047 32.8672L64.4875 33.0531C63.4813 33.6328 62.2563 33.4906 61.25 32.9109C60.2438 32.3312 59.4891 31.325 59.4891 30.1656V29.7937C59.4891 28.9953 58.9531 28.2844 58.1656 28.1641C57.4547 28.0547 56.7328 28 55.9891 28C55.2453 28 54.5234 28.0547 53.8125 28.1641C53.025 28.2844 52.4891 28.9953 52.4891 29.7937V30.1656C52.4891 31.325 51.7344 32.3312 50.7281 32.9109C49.7219 33.4906 48.4969 33.6328 47.4906 33.0531L47.1734 32.8672C46.4844 32.4734 45.5984 32.5828 45.0953 33.1953C44.6906 33.6984 44.3188 34.2344 43.9797 34.7922L43.7281 35.2188C43.4219 35.7766 43.1484 36.3563 42.9188 36.9578C42.6344 37.7016 42.9734 38.5219 43.6625 38.9156L43.9797 39.1016C44.9859 39.6813 45.4781 40.8297 45.4781 41.9891C45.4781 43.1484 44.9859 44.2969 43.9797 44.8766L43.6516 45.0625C42.9625 45.4562 42.6125 46.2766 42.9078 47.0203C43.1375 47.6219 43.4109 48.1906 43.7172 48.7484L43.9797 49.1969C44.3078 49.7547 44.6797 50.2797 45.0844 50.7828C45.5875 51.4062 46.4734 51.5156 47.1625 51.1109L47.4797 50.925C48.4859 50.3453 49.7109 50.4875 50.7172 51.0672C51.7234 51.6469 52.4781 52.6531 52.4781 53.8125V54.1844C52.4781 54.9828 53.0141 55.6937 53.8016 55.8141C54.5125 55.9234 55.2344 55.9781 55.9781 55.9781C56.7219 55.9781 57.4438 55.9234 58.1547 55.8141C58.9422 55.6937 59.4781 54.9828 59.4781 54.1844V53.8125C59.4781 52.6531 60.2328 51.6469 61.2391 51.0672C62.2453 50.4875 63.4703 50.3453 64.4766 50.925L64.7938 51.1109C65.4828 51.5047 66.3688 51.3953 66.8719 50.7828C67.2766 50.2797 67.6484 49.7547 67.9766 49.1969L68.2391 48.7375C68.5453 48.1797 68.8188 47.6109 69.0484 47.0094C69.3328 46.2656 68.9938 45.4453 68.3047 45.0516L67.9766 44.8656C66.9703 44.2859 66.4781 43.1375 66.4781 41.9781C66.4781 40.8187 66.9703 39.6703 67.9766 39.0906L68.3047 38.9047L68.3156 38.9266ZM51.625 42C51.625 40.8397 52.0859 39.7269 52.9064 38.9064C53.7269 38.0859 54.8397 37.625 56 37.625C57.1603 37.625 58.2731 38.0859 59.0936 38.9064C59.9141 39.7269 60.375 40.8397 60.375 42C60.375 43.1603 59.9141 44.2731 59.0936 45.0936C58.2731 45.9141 57.1603 46.375 56 46.375C54.8397 46.375 53.7269 45.9141 52.9064 45.0936C52.0859 44.2731 51.625 43.1603 51.625 42Z" fill="#9747FF"/>
</svg>
