<svg fill="#000000" version="1.1" id="Layer_1" xmlns="http://www.w3.org/2000/svg" xmlns:xlink="http://www.w3.org/1999/xlink" viewBox="0 0 512 512" xml:space="preserve" width="50px" height="50px"><g id="SVGRepo_bgCarrier" stroke-width="0"></g><g id="SVGRepo_tracerCarrier" stroke-linecap="round" stroke-linejoin="round"></g><g id="SVGRepo_iconCarrier"> <g> <g> <path d="M492.127,264.142H371.617c-11.92-43.18-47.433-76.671-91.741-85.657v-58.557c0-13.165-10.711-23.876-23.876-23.876 s-23.875,10.711-23.875,23.876v58.557c-44.308,8.986-79.822,42.476-91.742,85.657H19.873C8.915,264.142,0,273.058,0,284.015 c0,10.958,8.915,19.873,19.873,19.873h116.465c4.066,62.474,56.179,112.06,119.662,112.06c63.484,0,115.596-49.586,119.662-112.06 h116.465c10.958,0,19.873-8.915,19.873-19.873C512,273.058,503.085,264.142,492.127,264.142z M136.338,288.154H19.873 c-2.282,0.001-4.139-1.857-4.139-4.139c0-2.282,1.857-4.139,4.139-4.139h117.29C136.794,282.607,136.52,285.368,136.338,288.154z M247.858,119.928c0-4.49,3.651-8.142,8.141-8.142s8.142,3.652,8.142,8.142v56.449c-2.692-0.182-5.405-0.282-8.142-0.282 s-5.449,0.101-8.141,0.282V119.928z M256,400.215c-17.73,0-32.154-14.425-32.154-32.154S238.27,335.906,256,335.906 s32.154,14.424,32.154,32.154C288.154,385.791,273.73,400.215,256,400.215z M357.294,320.442h-37.777v15.734h32.622 c-10.344,24.677-29.922,44.554-54.388,55.297c3.9-6.928,6.136-14.912,6.136-23.414c0-26.406-21.484-47.889-47.889-47.889 c-26.405,0-47.889,21.482-47.889,47.889c0,8.501,2.236,16.485,6.136,23.414c-24.466-10.743-44.044-30.621-54.389-55.297h32.736 v-15.734h-37.891c-1.889-7.837-2.897-16.012-2.897-24.421c0-57.452,46.741-104.193,104.193-104.193 s104.193,46.741,104.193,104.193C360.191,304.429,359.183,312.605,357.294,320.442z M492.127,288.155H375.662 c-0.181-2.786-0.456-5.547-0.826-8.278h117.29c2.283,0,4.139,1.857,4.139,4.139C496.266,286.297,494.408,288.155,492.127,288.155z "></path> </g> </g> <g> <g> <path d="M456.93,329.173V313.1h-15.734v15.688c-18.71,3.282-32.978,19.637-32.978,39.273c0,21.992,17.893,39.884,39.885,39.884 s39.883-17.892,39.883-39.884C487.986,349.102,474.687,333.202,456.93,329.173z M448.103,392.211 c-13.316,0-24.151-10.833-24.151-24.15s10.834-24.15,24.151-24.15c13.315,0,24.149,10.834,24.149,24.15 S461.419,392.211,448.103,392.211z"></path> </g> </g> <g> <g> <rect x="441.198" y="360.304" width="15.734" height="15.734"></rect> </g> </g> <g> <g> <path d="M71.966,328.998V313.1H56.232v15.823c-18.337,3.585-32.219,19.767-32.219,39.137c0,21.992,17.892,39.884,39.884,39.884 s39.884-17.892,39.884-39.884C103.781,348.831,90.104,332.738,71.966,328.998z M63.897,392.211 c-13.316,0-24.15-10.833-24.15-24.15s10.833-24.15,24.15-24.15s24.15,10.834,24.15,24.15S77.213,392.211,63.897,392.211z"></path> </g> </g> <g> <g> <rect x="56.232" y="360.304" width="15.734" height="15.734"></rect> </g> </g> <g> <g> <path d="M342.648,297.365l-16.466-66.084H185.814l-16.413,66.084h-10.372v15.734h194.055v-15.734H342.648z M185.612,297.366 l12.506-50.35h115.769l12.546,50.35H185.612z"></path> </g> </g> <g> <g> <rect x="224.066" y="208.206" width="15.734" height="15.734"></rect> </g> </g> <g> <g> <rect x="247.143" y="208.206" width="16.783" height="15.734"></rect> </g> </g> <g> <g> <rect x="271.268" y="208.206" width="15.734" height="15.734"></rect> </g> </g> <g> <g> <rect x="287.003" y="143.172" width="66.084" height="15.734"></rect> </g> </g> <g> <g> <rect x="159.031" y="143.172" width="65.035" height="15.734"></rect> </g> </g> <g> <g> <rect x="212.665" y="264.151" transform="matrix(0.7071 -0.7071 0.7071 0.7071 -126.7422 238.0529)" width="22.639" height="15.734"></rect> </g> </g> <g> <g> <rect x="244.678" y="264.15" transform="matrix(0.7071 -0.7071 0.7071 0.7071 -117.3652 260.6893)" width="22.639" height="15.734"></rect> </g> </g> <g> <g> <rect x="276.673" y="264.143" transform="matrix(0.7071 -0.7071 0.7071 0.7071 -107.9885 283.3107)" width="22.639" height="15.733"></rect> </g> </g> <g> <g> <rect x="48.889" y="239.675" width="47.203" height="15.734"></rect> </g> </g> <g> <g> <rect x="416.023" y="239.675" width="48.252" height="15.734"></rect> </g> </g> </g></svg>