<svg width="24" height="24" viewBox="0 0 24 24" fill="none" xmlns="http://www.w3.org/2000/svg">
<path d="M22 9V17C22 17.5304 21.7893 18.0391 21.4142 18.4142C21.0391 18.7893 20.5304 19 20 19H4C3.46957 19 2.96086 18.7893 2.58579 18.4142C2.21071 18.0391 2 17.5304 2 17V7C2 6.46957 2.21071 5.96086 2.58579 5.58579C2.96086 5.21071 3.46957 5 4 5H20C20.5304 5 21.0391 5.21071 21.4142 5.58579C21.7893 5.96086 22 6.46957 22 7V9ZM22 9H6" stroke="#14AE5C" stroke-width="1.5" stroke-linecap="round" stroke-linejoin="round"/>
<path d="M16.5 13.382C16.7158 13.1889 16.9829 13.0625 17.269 13.0179C17.5551 12.9733 17.848 13.0125 18.1124 13.1307C18.3767 13.2489 18.6012 13.4411 18.7587 13.6841C18.9162 13.9271 19 14.2104 19 14.5C19 14.7896 18.9162 15.0729 18.7587 15.3159C18.6012 15.5589 18.3767 15.7511 18.1124 15.8693C17.848 15.9875 17.5551 16.0267 17.269 15.9821C16.9829 15.9375 16.7158 15.8111 16.5 15.618M16.5 13.382C16.2842 13.1889 16.0171 13.0625 15.731 13.0179C15.4449 12.9733 15.152 13.0125 14.8876 13.1307C14.6233 13.2489 14.3988 13.4411 14.2413 13.6841C14.0838 13.9271 14 14.2104 14 14.5C14 14.7896 14.0838 15.0729 14.2413 15.3159C14.3988 15.5589 14.6233 15.7511 14.8876 15.8693C15.152 15.9875 15.4449 16.0267 15.731 15.9821C16.0171 15.9375 16.2842 15.8111 16.5 15.618" stroke="#14AE5C" stroke-width="1.5" stroke-linecap="round" stroke-linejoin="round"/>
</svg>
