<svg width="50" height="30" viewBox="0 0 53 40" fill="none" xmlns="http://www.w3.org/2000/svg">
<path d="M9.53945 39.8012V37.1538C9.53945 36.1387 8.90936 35.477 7.82935 35.477C7.28945 35.477 6.70446 35.6535 6.29944 36.2271C5.9846 35.7417 5.53468 35.477 4.8597 35.477C4.40958 35.477 3.95987 35.6092 3.59973 36.0947V35.5652H2.65481V39.8012H3.59973V37.4625C3.59973 36.7126 4.00476 36.3594 4.63485 36.3594C5.26453 36.3594 5.57977 36.7566 5.57977 37.4625V39.8012H6.5247V37.4625C6.5247 36.7126 6.97441 36.3594 7.55941 36.3594C8.18949 36.3594 8.50433 36.7566 8.50433 37.4625V39.8012H9.53945ZM23.5332 35.5652H22.0034V34.2856H21.0585V35.5652H20.2036V36.4034H21.0583V38.3451C21.0583 39.316 21.4633 39.8894 22.5433 39.8894C22.9484 39.8894 23.3981 39.7572 23.7133 39.5807L23.4432 38.7863C23.1732 38.9628 22.8584 39.007 22.6333 39.007C22.1834 39.007 22.0034 38.7423 22.0034 38.3009V36.4034H23.5332V35.5652ZM31.5427 35.4768C31.0028 35.4768 30.6429 35.7417 30.4178 36.0947V35.5652H29.4729V39.8012H30.4178V37.4185C30.4178 36.7126 30.7326 36.3154 31.3176 36.3154C31.4976 36.3154 31.7227 36.3596 31.9026 36.4036L32.1726 35.5212C31.9926 35.477 31.7227 35.477 31.5427 35.477M19.4386 35.9184C18.9885 35.6094 18.3586 35.4772 17.6836 35.4772C16.6038 35.4772 15.884 36.0066 15.884 36.845C15.884 37.5512 16.4239 37.9481 17.3688 38.0806L17.8187 38.1248C18.3137 38.2129 18.5837 38.3453 18.5837 38.566C18.5837 38.8748 18.2237 39.0955 17.5937 39.0955C16.9636 39.0955 16.4688 38.8748 16.1537 38.6543L15.7038 39.3602C16.1988 39.7132 16.8738 39.8896 17.5486 39.8896C18.8085 39.8896 19.5286 39.3162 19.5286 38.5218C19.5286 37.7717 18.9436 37.3745 18.0436 37.2422L17.5937 37.198C17.1886 37.1538 16.8738 37.0657 16.8738 36.801C16.8738 36.4921 17.1886 36.3156 17.6836 36.3156C18.2237 36.3156 18.7636 36.5361 19.0336 36.6685L19.4386 35.9184ZM44.5468 35.4772C44.0067 35.4772 43.6468 35.7419 43.4217 36.0949V35.5654H42.4768V39.8014H43.4217V37.4187C43.4217 36.7128 43.7368 36.3156 44.3215 36.3156C44.5017 36.3156 44.7268 36.3598 44.9067 36.4038L45.1767 35.5214C44.9967 35.4772 44.7268 35.4772 44.5468 35.4772ZM32.4876 37.6834C32.4876 38.963 33.3875 39.8896 34.7825 39.8896C35.4124 39.8896 35.8623 39.7574 36.3122 39.4044L35.8623 38.6543C35.5024 38.919 35.1424 39.0513 34.7374 39.0513C33.9724 39.0513 33.4325 38.5218 33.4325 37.6834C33.4325 36.8892 33.9724 36.3596 34.7374 36.3156C35.1424 36.3156 35.5024 36.4478 35.8623 36.7128L36.3122 35.9626C35.8623 35.6094 35.4124 35.4772 34.7825 35.4772C33.3875 35.4772 32.4876 36.4038 32.4876 37.6834ZM41.217 37.6834V35.5654H40.2721V36.0949C39.957 35.6979 39.5071 35.4772 38.9221 35.4772C37.7073 35.4772 36.7623 36.4038 36.7623 37.6834C36.7623 38.963 37.7073 39.8896 38.9221 39.8896C39.552 39.8896 40.0021 39.6691 40.2721 39.272V39.8014H41.217V37.6834ZM37.7522 37.6834C37.7522 36.9333 38.2472 36.3156 39.057 36.3156C39.822 36.3156 40.3621 36.8892 40.3621 37.6834C40.3621 38.4336 39.822 39.0513 39.057 39.0513C38.2472 39.007 37.7522 38.4336 37.7522 37.6834ZM26.4581 35.4772C25.1982 35.4772 24.2981 36.3596 24.2981 37.6834C24.2981 39.0072 25.198 39.8896 26.503 39.8896C27.1329 39.8896 27.763 39.7132 28.258 39.3162L27.8079 38.6543C27.4479 38.919 26.998 39.0955 26.5481 39.0955C25.9631 39.0955 25.3781 38.8308 25.2431 38.0804H28.438V37.7276C28.4831 36.3596 27.6732 35.4772 26.4581 35.4772ZM26.4579 36.2714C27.0427 36.2714 27.4479 36.6245 27.5377 37.2864H25.2879C25.3779 36.7128 25.783 36.2714 26.4579 36.2714ZM49.9011 37.6834V33.8886H48.9562V36.0949C48.6411 35.6979 48.1912 35.4772 47.6062 35.4772C46.3914 35.4772 45.4464 36.4038 45.4464 37.6834C45.4464 38.963 46.3914 39.8896 47.6062 39.8896C48.2363 39.8896 48.6862 39.6691 48.9562 39.272V39.8014H49.9011V37.6834ZM46.4365 37.6834C46.4365 36.9333 46.9313 36.3156 47.7413 36.3156C48.5063 36.3156 49.0462 36.8892 49.0462 37.6834C49.0462 38.4336 48.5063 39.0513 47.7413 39.0513C46.9313 39.007 46.4365 38.4336 46.4365 37.6834ZM14.8487 37.6834V35.5654H13.9037V36.0949C13.5887 35.6979 13.1388 35.4772 12.5538 35.4772C11.3389 35.4772 10.394 36.4038 10.394 37.6834C10.394 38.963 11.3389 39.8896 12.5538 39.8896C13.1839 39.8896 13.6338 39.6691 13.9037 39.272V39.8014H14.8487V37.6834ZM11.3389 37.6834C11.3389 36.9333 11.8339 36.3156 12.6438 36.3156C13.4087 36.3156 13.9488 36.8892 13.9488 37.6834C13.9488 38.4336 13.4087 39.0513 12.6438 39.0513C11.8339 39.007 11.3389 38.4336 11.3389 37.6834Z" fill="black"/>
<path d="M19.1236 3.39759H33.2975V28.3727H19.1236V3.39759Z" fill="#FF5F00"/>
<path d="M20.0236 15.8852C20.0236 10.8109 22.4534 6.30995 26.188 3.39759C23.4434 1.2796 19.9787 0 16.199 0C7.24436 0 0 7.10412 0 15.8852C0 24.6663 7.24436 31.7705 16.1988 31.7705C19.9785 31.7705 23.4432 30.4909 26.188 28.3727C22.4534 25.5045 20.0236 20.9596 20.0236 15.8852Z" fill="#EB001B"/>
<path d="M52.4211 15.8852C52.4211 24.6661 45.1767 31.7705 36.2222 31.7705C32.4425 31.7705 28.9779 30.4909 26.2331 28.3727C30.0128 25.4605 32.3976 20.9596 32.3976 15.8852C32.3976 10.8109 29.9677 6.30995 26.2331 3.39759C28.9777 1.2796 32.4425 0 36.2222 0C45.1767 0 52.4211 7.14834 52.4211 15.8852Z" fill="#F79E1B"/>
</svg>
