<svg width="20" height="20" viewBox="0 0 20 20" fill="none" xmlns="http://www.w3.org/2000/svg">
<path d="M9 6C8.46957 6 7.96086 6.21071 7.58579 6.58579C7.21071 6.96086 7 7.46957 7 8C7 8.53043 7.21071 9.03914 7.58579 9.41421C7.96086 9.78929 8.46957 10 9 10C9.53043 10 10.0391 9.78929 10.4142 9.41421C10.7893 9.03914 11 8.53043 11 8C11 7.46957 10.7893 6.96086 10.4142 6.58579C10.0391 6.21071 9.53043 6 9 6ZM8 8C8 7.73478 8.10536 7.48043 8.29289 7.29289C8.48043 7.10536 8.73478 7 9 7C9.26522 7 9.51957 7.10536 9.70711 7.29289C9.89464 7.48043 10 7.73478 10 8C10 8.26522 9.89464 8.51957 9.70711 8.70711C9.51957 8.89464 9.26522 9 9 9C8.73478 9 8.48043 8.89464 8.29289 8.70711C8.10536 8.51957 8 8.26522 8 8ZM2 4.5C2 4.10218 2.15804 3.72064 2.43934 3.43934C2.72064 3.15804 3.10218 3 3.5 3H14.5C14.8978 3 15.2794 3.15804 15.5607 3.43934C15.842 3.72064 16 4.10218 16 4.5V8H15V7H14C13.4696 7 12.9609 6.78929 12.5858 6.41421C12.2107 6.03914 12 5.53043 12 5V4H6V5C6 5.53043 5.78929 6.03914 5.41421 6.41421C5.03914 6.78929 4.53043 7 4 7H3V9H4C4.53043 9 5.03914 9.21071 5.41421 9.58579C5.78929 9.96086 6 10.4696 6 11V12H11V13H3.5C3.10218 13 2.72064 12.842 2.43934 12.5607C2.15804 12.2794 2 11.8978 2 11.5V4.5ZM3.5 4C3.36739 4 3.24021 4.05268 3.14645 4.14645C3.05268 4.24021 3 4.36739 3 4.5V6H4C4.26522 6 4.51957 5.89464 4.70711 5.70711C4.89464 5.51957 5 5.26522 5 5V4H3.5ZM14.5 4H13V5C13 5.26522 13.1054 5.51957 13.2929 5.70711C13.4804 5.89464 13.7348 6 14 6H15V4.5C15 4.36739 14.9473 4.24021 14.8536 4.14645C14.7598 4.05268 14.6326 4 14.5 4ZM3.5 12H5V11C5 10.7348 4.89464 10.4804 4.70711 10.2929C4.51957 10.1054 4.26522 10 4 10H3V11.5C3 11.6326 3.05268 11.7598 3.14645 11.8536C3.24021 11.9473 3.36739 12 3.5 12ZM17 8V5.085C17.2926 5.18844 17.5459 5.38008 17.725 5.63351C17.9041 5.88694 18.0002 6.18967 18 6.5V8H17ZM11 14V15H5.5C5.18967 15.0002 4.88694 14.9041 4.63351 14.725C4.38008 14.5459 4.18844 14.2926 4.085 14H11ZM13.5 9C13.1022 9 12.7206 9.15804 12.4393 9.43934C12.158 9.72064 12 10.1022 12 10.5V17.5C12 17.8978 12.158 18.2794 12.4393 18.5607C12.7206 18.842 13.1022 19 13.5 19H17.5C17.8978 19 18.2794 18.842 18.5607 18.5607C18.842 18.2794 19 17.8978 19 17.5V10.5C19 10.1022 18.842 9.72064 18.5607 9.43934C18.2794 9.15804 17.8978 9 17.5 9H13.5ZM13.5 13H14.5C14.6326 13 14.7598 13.0527 14.8536 13.1464C14.9473 13.2402 15 13.3674 15 13.5C15 13.6326 14.9473 13.7598 14.8536 13.8536C14.7598 13.9473 14.6326 14 14.5 14H13.5C13.3674 14 13.2402 13.9473 13.1464 13.8536C13.0527 13.7598 13 13.6326 13 13.5C13 13.3674 13.0527 13.2402 13.1464 13.1464C13.2402 13.0527 13.3674 13 13.5 13ZM16.5 13H17.5C17.6326 13 17.7598 13.0527 17.8536 13.1464C17.9473 13.2402 18 13.3674 18 13.5C18 13.6326 17.9473 13.7598 17.8536 13.8536C17.7598 13.9473 17.6326 14 17.5 14H16.5C16.3674 14 16.2402 13.9473 16.1464 13.8536C16.0527 13.7598 16 13.6326 16 13.5C16 13.3674 16.0527 13.2402 16.1464 13.1464C16.2402 13.0527 16.3674 13 16.5 13ZM13.5 15H14.5C14.6326 15 14.7598 15.0527 14.8536 15.1464C14.9473 15.2402 15 15.3674 15 15.5C15 15.6326 14.9473 15.7598 14.8536 15.8536C14.7598 15.9473 14.6326 16 14.5 16H13.5C13.3674 16 13.2402 15.9473 13.1464 15.8536C13.0527 15.7598 13 15.6326 13 15.5C13 15.3674 13.0527 15.2402 13.1464 15.1464C13.2402 15.0527 13.3674 15 13.5 15ZM16.5 15H17.5C17.6326 15 17.7598 15.0527 17.8536 15.1464C17.9473 15.2402 18 15.3674 18 15.5C18 15.6326 17.9473 15.7598 17.8536 15.8536C17.7598 15.9473 17.6326 16 17.5 16H16.5C16.3674 16 16.2402 15.9473 16.1464 15.8536C16.0527 15.7598 16 15.6326 16 15.5C16 15.3674 16.0527 15.2402 16.1464 15.1464C16.2402 15.0527 16.3674 15 16.5 15ZM13.5 17H14.5C14.6326 17 14.7598 17.0527 14.8536 17.1464C14.9473 17.2402 15 17.3674 15 17.5C15 17.6326 14.9473 17.7598 14.8536 17.8536C14.7598 17.9473 14.6326 18 14.5 18H13.5C13.3674 18 13.2402 17.9473 13.1464 17.8536C13.0527 17.7598 13 17.6326 13 17.5C13 17.3674 13.0527 17.2402 13.1464 17.1464C13.2402 17.0527 13.3674 17 13.5 17ZM16.5 17H17.5C17.6326 17 17.7598 17.0527 17.8536 17.1464C17.9473 17.2402 18 17.3674 18 17.5C18 17.6326 17.9473 17.7598 17.8536 17.8536C17.7598 17.9473 17.6326 18 17.5 18H16.5C16.3674 18 16.2402 17.9473 16.1464 17.8536C16.0527 17.7598 16 17.6326 16 17.5C16 17.3674 16.0527 17.2402 16.1464 17.1464C16.2402 17.0527 16.3674 17 16.5 17ZM13 10.5C13 10.3674 13.0527 10.2402 13.1464 10.1464C13.2402 10.0527 13.3674 10 13.5 10H17.5C17.6326 10 17.7598 10.0527 17.8536 10.1464C17.9473 10.2402 18 10.3674 18 10.5V11.5C18 11.6326 17.9473 11.7598 17.8536 11.8536C17.7598 11.9473 17.6326 12 17.5 12H13.5C13.3674 12 13.2402 11.9473 13.1464 11.8536C13.0527 11.7598 13 11.6326 13 11.5V10.5Z" fill="#14AE5C"/>
</svg>
