<svg width="50" height="50" viewBox="0 0 30 30" fill="none" xmlns="http://www.w3.org/2000/svg">
<path d="M9.9375 11.1562L7.78125 11.8594V12.6094L9.9375 12V11.1562Z" fill="#C94747"/>
<path d="M9.9375 12L7.78125 12.6094V13.4531L9.9375 12.8437V12Z" fill="#3E4347"/>
<path d="M0.9375 24.2344H29.0625V29.0625H0.9375V24.2344Z" fill="#75D6FF"/>
<path d="M14.1563 7.3125H14.1094C14.1563 7.17188 14.1563 7.03125 14.1563 6.89063C14.1563 6.09375 13.5937 5.39063 12.7969 5.25C12.5625 4.3125 11.7187 3.60938 10.7344 3.60938C10.4531 3.60938 10.125 3.65625 9.89063 3.79688C9.42188 3.09375 8.67188 2.67188 7.78125 2.67188H7.5C7.03125 1.64062 6 0.9375 4.78125 0.9375C3.14062 0.9375 1.82812 2.25 1.82812 3.9375C1.82812 5.625 3.14063 6.9375 4.82813 6.9375C5.15625 6.9375 5.48437 6.89063 5.76562 6.79688C6.23437 7.40625 6.98438 7.82813 7.78125 7.82813C8.34375 7.82813 8.85937 7.64063 9.28125 7.3125C9.65625 7.6875 10.1719 7.92188 10.7344 7.92188C10.8281 7.92188 10.9219 7.92188 11.0156 7.875C11.2969 8.34375 11.8594 8.625 12.4219 8.625C12.75 8.625 13.0312 8.53125 13.3125 8.39063C13.4063 8.76563 13.7344 9.04688 14.1563 9.04688C14.625 9.04688 15 8.67188 15 8.20313C15 7.6875 14.625 7.3125 14.1563 7.3125Z" fill="#DAE3EA"/>
<path d="M15.7969 8.53125C15.2813 8.29688 14.7188 8.20312 14.1563 8.20312C13.5 8.20312 12.6094 8.34375 12.0469 8.625L11.625 12H17.5781L15.7969 8.53125Z" fill="#94989B"/>
<path d="M8.625 12.8438L6.51562 13.8281V16.2656H7.78125V21.375H18.8438V15.8437L8.625 12.8438Z" fill="#62727A"/>
<path d="M8.625 12.8438V15.4219H9.89063V20.9531H20.9531V15.4219H22.2656V12.8438H8.625Z" fill="#B2C1C0"/>
<path d="M9.89063 22.2656L4.78125 23.0625V18.7969L9.89063 16.2656V22.2656Z" fill="#62727A"/>
<path d="M26.3906 26.6719C26.3906 26.6719 11.9531 29.7188 5.15625 27.2344C4.21875 26.9063 3.14062 26.2969 1.82812 24.9375V22.875C1.82812 22.875 6.65625 22.2656 12.5625 19.0781C19.8281 15.1875 26.2031 15 28.2656 15.8906C28.2187 15.8438 26.3906 18.7969 26.3906 26.6719Z" fill="#F15744"/>
<path d="M26.4844 24.3281C26.5313 22.5469 27.0937 21.7969 27.7969 20.625C30.375 16.5 28.2188 15.8906 28.2188 15.8906C26.5781 18.6094 26.4844 24.3281 26.4844 24.3281Z" fill="#D33B23"/>
<path d="M27.7969 16.7344C25.1719 15.9844 19.125 16.5469 12.4687 20.1094C6.65625 23.25 1.875 23.4844 1.82812 23.4844V23.9062C1.875 23.9062 6.75 23.6719 12.6562 20.5312C19.125 17.0625 25.125 16.5 27.6562 17.1562L27.7969 16.7344Z" fill="white"/>
<path d="M27.7969 16.7812C27.75 16.9219 27.7031 17.0625 27.6562 17.1562C28.0313 17.2969 28.6875 17.6719 28.9219 18.375C29.0156 18.1406 29.0625 17.9063 29.0625 17.7188C28.6875 17.2031 28.125 16.9219 27.7969 16.7812Z" fill="#B2C1C0"/>
<path d="M9.9375 12H20.9531V12.8437H9.9375V12Z" fill="#62727A"/>
<path d="M9.9375 11.1562H20.9531V12H9.9375V11.1562Z" fill="#FF9D27"/>
<path d="M8.625 12.8438H22.2656V15.375H8.625V12.8438Z" fill="#C5D0D8"/>
<path d="M9.51562 13.5H10.125V14.7656H9.51562V13.5ZM11.1094 13.5H11.7188V14.7656H11.1094V13.5ZM12.7031 13.5H13.3125V14.7656H12.7031V13.5ZM14.2969 13.5H14.9062V14.7656H14.2969V13.5ZM15.9375 13.5H16.5469V14.7656H15.9375V13.5ZM17.5313 13.5H18.1406V14.7656H17.5313V13.5ZM19.125 13.5H19.7344V14.7656H19.125V13.5ZM20.7188 13.5H21.3281V14.7656H20.7188V13.5Z" fill="#94989B"/>
<path d="M10.7344 15.8438H12.4219V16.6875H10.7344V15.8438ZM20.1094 16.0781L18.4219 16.5469V15.8438H20.1094V16.0781ZM15.8437 15.8438H17.5313V16.6875H15.8437V15.8438ZM13.3125 15.8438H15V16.6875H13.3125V15.8438Z" fill="#62727A"/>
<path d="M6.32813 19.4063L5.25 19.9219V20.9531L6.32813 20.5313V19.4063ZM9.42188 17.8594L8.34375 18.4219V19.7344L9.42188 19.3125V17.8594ZM7.875 18.6563L6.79688 19.1719V20.3438L7.875 19.9219V18.6563Z" fill="white"/>
</svg>
