<svg width="20" height="20" viewBox="0 0 20 20" fill="none" xmlns="http://www.w3.org/2000/svg">
<path d="M7.5 2.04C7.36739 2.04 7.24021 2.09268 7.14645 2.18645C7.05268 2.28022 7 2.40739 7 2.54V5H4.5C4.36739 5 4.24021 5.05268 4.14645 5.14645C4.05268 5.24022 4 5.36739 4 5.5V9.563L2.366 10.019C2.29602 10.0386 2.23114 10.0731 2.17589 10.1203C2.12063 10.1675 2.07633 10.2262 2.04606 10.2923C2.01579 10.3583 2.00029 10.4302 2.00062 10.5028C2.00095 10.5755 2.01712 10.6472 2.048 10.713L3.85 14.543C4.07005 14.2776 4.37481 14.0961 4.713 14.029L3.204 10.823L9.46 9.08C9.8113 8.98208 10.1827 8.98208 10.534 9.08L16.791 10.823L15.251 14.022C15.5898 14.0783 15.899 14.2491 16.127 14.506L17.952 10.718C17.9836 10.6521 18.0004 10.5801 18.0012 10.507C18.0019 10.4339 17.9867 10.3616 17.9564 10.295C17.9262 10.2285 17.8818 10.1694 17.8262 10.1218C17.7707 10.0743 17.7054 10.0396 17.635 10.02L16 9.564V5.5C16 5.36739 15.9473 5.24022 15.8536 5.14645C15.7598 5.05268 15.6326 5 15.5 5H13V2.539C13 2.40639 12.9473 2.27922 12.8536 2.18545C12.7598 2.09168 12.6326 2.039 12.5 2.039L7.5 2.04ZM12 5H8V3.04H12V5ZM15 6V9.285L10.801 8.115C10.2744 7.96831 9.71764 7.96831 9.191 8.115L5 9.286V6H15ZM15.488 15.39L15.485 15.38C15.4592 15.2766 15.401 15.1842 15.3189 15.1162C15.2368 15.0482 15.1351 15.0082 15.0287 15.0021C14.9223 14.9959 14.8167 15.0239 14.7274 15.082C14.638 15.1401 14.5696 15.2253 14.532 15.325L14.527 15.335L14.507 15.386C14.3799 15.6728 14.2158 15.9417 14.019 16.186C13.661 16.626 13.164 17 12.5 17C11.836 17 11.338 16.625 10.978 16.184C10.7689 15.9257 10.5966 15.6396 10.466 15.334L10.461 15.323C10.4247 15.2283 10.3605 15.1468 10.2768 15.0894C10.1931 15.032 10.0939 15.0015 9.99247 15.0018C9.891 15.0021 9.79204 15.0333 9.70872 15.0912C9.62541 15.1491 9.56168 15.231 9.526 15.326L9.521 15.336L9.501 15.387C9.481 15.4343 9.44967 15.4997 9.407 15.583C9.29679 15.7966 9.16547 15.9986 9.015 16.186C8.659 16.626 8.164 17 7.5 17C6.836 17 6.34 16.625 5.982 16.185C5.77362 15.9265 5.60199 15.6405 5.472 15.335L5.468 15.325C5.43044 15.2253 5.36198 15.1391 5.27262 15.081C5.18327 15.0229 5.07768 14.9949 4.97127 15.0011C4.86487 15.0072 4.76321 15.0472 4.68113 15.1152C4.59905 15.1832 4.54084 15.2756 4.515 15.379L4.513 15.387L4.499 15.433C4.40806 15.7084 4.27334 15.9674 4.1 16.2C3.793 16.61 3.304 17 2.5 17C2.36739 17 2.24021 17.0527 2.14645 17.1464C2.05268 17.2402 2 17.3674 2 17.5C2 17.6326 2.05268 17.7598 2.14645 17.8536C2.24021 17.9473 2.36739 18 2.5 18C3.696 18 4.457 17.392 4.9 16.8C4.95067 16.7327 4.99733 16.6657 5.04 16.599C5.09067 16.6703 5.146 16.7427 5.206 16.816C5.66 17.376 6.414 18 7.5 18C8.586 18 9.338 17.374 9.792 16.814C9.86667 16.7207 9.93467 16.6293 9.996 16.54C10.0593 16.6307 10.1283 16.7227 10.203 16.816C10.66 17.377 11.414 18 12.5 18C13.586 18 14.34 17.376 14.794 16.816C14.852 16.7447 14.906 16.674 14.956 16.604C14.9993 16.6713 15.046 16.7393 15.096 16.808C15.54 17.404 16.303 18.015 17.506 18C17.5717 17.9992 17.6365 17.9855 17.6969 17.9596C17.7572 17.9338 17.8119 17.8963 17.8578 17.8493C17.9037 17.8023 17.9398 17.7468 17.9642 17.6858C17.9886 17.6248 18.0008 17.5597 18 17.494C17.9992 17.4283 17.9855 17.3635 17.9596 17.3031C17.9338 17.2428 17.8963 17.1881 17.8493 17.1422C17.8023 17.0963 17.7468 17.0602 17.6858 17.0358C17.6248 17.0114 17.5597 16.9992 17.494 17C16.691 17.01 16.204 16.621 15.899 16.211C15.7257 15.9762 15.5916 15.7148 15.502 15.437L15.488 15.39Z" fill="#14AE5C"/>
</svg>
